%TF.GenerationSoftware,KiCad,Pcbnew,9.0.7*%
%TF.CreationDate,2026-04-10T15:56:45-04:00*%
%TF.ProjectId,Macro Pad,4d616372-6f20-4506-9164-2e6b69636164,rev?*%
%TF.SameCoordinates,Original*%
%TF.FileFunction,Legend,Top*%
%TF.FilePolarity,Positive*%
%FSLAX46Y46*%
G04 Gerber Fmt 4.6, Leading zero omitted, Abs format (unit mm)*
G04 Created by KiCad (PCBNEW 9.0.7) date 2026-04-10 15:56:45*
%MOMM*%
%LPD*%
G01*
G04 APERTURE LIST*
%ADD10C,0.150000*%
%ADD11C,0.101600*%
%ADD12C,0.120000*%
%ADD13C,0.127000*%
%ADD14C,0.100000*%
%ADD15C,0.504000*%
G04 APERTURE END LIST*
D10*
X132010417Y-75876950D02*
X132153274Y-75924569D01*
X132153274Y-75924569D02*
X132391369Y-75924569D01*
X132391369Y-75924569D02*
X132486607Y-75876950D01*
X132486607Y-75876950D02*
X132534226Y-75829330D01*
X132534226Y-75829330D02*
X132581845Y-75734092D01*
X132581845Y-75734092D02*
X132581845Y-75638854D01*
X132581845Y-75638854D02*
X132534226Y-75543616D01*
X132534226Y-75543616D02*
X132486607Y-75495997D01*
X132486607Y-75495997D02*
X132391369Y-75448378D01*
X132391369Y-75448378D02*
X132200893Y-75400759D01*
X132200893Y-75400759D02*
X132105655Y-75353140D01*
X132105655Y-75353140D02*
X132058036Y-75305521D01*
X132058036Y-75305521D02*
X132010417Y-75210283D01*
X132010417Y-75210283D02*
X132010417Y-75115045D01*
X132010417Y-75115045D02*
X132058036Y-75019807D01*
X132058036Y-75019807D02*
X132105655Y-74972188D01*
X132105655Y-74972188D02*
X132200893Y-74924569D01*
X132200893Y-74924569D02*
X132438988Y-74924569D01*
X132438988Y-74924569D02*
X132581845Y-74972188D01*
X132915179Y-74924569D02*
X133153274Y-75924569D01*
X133153274Y-75924569D02*
X133343750Y-75210283D01*
X133343750Y-75210283D02*
X133534226Y-75924569D01*
X133534226Y-75924569D02*
X133772322Y-74924569D01*
X134581845Y-74924569D02*
X134391369Y-74924569D01*
X134391369Y-74924569D02*
X134296131Y-74972188D01*
X134296131Y-74972188D02*
X134248512Y-75019807D01*
X134248512Y-75019807D02*
X134153274Y-75162664D01*
X134153274Y-75162664D02*
X134105655Y-75353140D01*
X134105655Y-75353140D02*
X134105655Y-75734092D01*
X134105655Y-75734092D02*
X134153274Y-75829330D01*
X134153274Y-75829330D02*
X134200893Y-75876950D01*
X134200893Y-75876950D02*
X134296131Y-75924569D01*
X134296131Y-75924569D02*
X134486607Y-75924569D01*
X134486607Y-75924569D02*
X134581845Y-75876950D01*
X134581845Y-75876950D02*
X134629464Y-75829330D01*
X134629464Y-75829330D02*
X134677083Y-75734092D01*
X134677083Y-75734092D02*
X134677083Y-75495997D01*
X134677083Y-75495997D02*
X134629464Y-75400759D01*
X134629464Y-75400759D02*
X134581845Y-75353140D01*
X134581845Y-75353140D02*
X134486607Y-75305521D01*
X134486607Y-75305521D02*
X134296131Y-75305521D01*
X134296131Y-75305521D02*
X134200893Y-75353140D01*
X134200893Y-75353140D02*
X134153274Y-75400759D01*
X134153274Y-75400759D02*
X134105655Y-75495997D01*
X160523557Y-85859285D02*
X159623557Y-85859285D01*
X159623557Y-85859285D02*
X159623557Y-85644999D01*
X159623557Y-85644999D02*
X159666414Y-85516428D01*
X159666414Y-85516428D02*
X159752128Y-85430713D01*
X159752128Y-85430713D02*
X159837842Y-85387856D01*
X159837842Y-85387856D02*
X160009271Y-85344999D01*
X160009271Y-85344999D02*
X160137842Y-85344999D01*
X160137842Y-85344999D02*
X160309271Y-85387856D01*
X160309271Y-85387856D02*
X160394985Y-85430713D01*
X160394985Y-85430713D02*
X160480700Y-85516428D01*
X160480700Y-85516428D02*
X160523557Y-85644999D01*
X160523557Y-85644999D02*
X160523557Y-85859285D01*
X160523557Y-84916428D02*
X160523557Y-84744999D01*
X160523557Y-84744999D02*
X160480700Y-84659285D01*
X160480700Y-84659285D02*
X160437842Y-84616428D01*
X160437842Y-84616428D02*
X160309271Y-84530713D01*
X160309271Y-84530713D02*
X160137842Y-84487856D01*
X160137842Y-84487856D02*
X159794985Y-84487856D01*
X159794985Y-84487856D02*
X159709271Y-84530713D01*
X159709271Y-84530713D02*
X159666414Y-84573571D01*
X159666414Y-84573571D02*
X159623557Y-84659285D01*
X159623557Y-84659285D02*
X159623557Y-84830713D01*
X159623557Y-84830713D02*
X159666414Y-84916428D01*
X159666414Y-84916428D02*
X159709271Y-84959285D01*
X159709271Y-84959285D02*
X159794985Y-85002142D01*
X159794985Y-85002142D02*
X160009271Y-85002142D01*
X160009271Y-85002142D02*
X160094985Y-84959285D01*
X160094985Y-84959285D02*
X160137842Y-84916428D01*
X160137842Y-84916428D02*
X160180700Y-84830713D01*
X160180700Y-84830713D02*
X160180700Y-84659285D01*
X160180700Y-84659285D02*
X160137842Y-84573571D01*
X160137842Y-84573571D02*
X160094985Y-84530713D01*
X160094985Y-84530713D02*
X160009271Y-84487856D01*
X160573569Y-88844404D02*
X159573569Y-88844404D01*
X160573569Y-88272976D02*
X160002140Y-88701547D01*
X159573569Y-88272976D02*
X160144997Y-88844404D01*
X179579819Y-124089285D02*
X178579819Y-124089285D01*
X178579819Y-124089285D02*
X178579819Y-123851190D01*
X178579819Y-123851190D02*
X178627438Y-123708333D01*
X178627438Y-123708333D02*
X178722676Y-123613095D01*
X178722676Y-123613095D02*
X178817914Y-123565476D01*
X178817914Y-123565476D02*
X179008390Y-123517857D01*
X179008390Y-123517857D02*
X179151247Y-123517857D01*
X179151247Y-123517857D02*
X179341723Y-123565476D01*
X179341723Y-123565476D02*
X179436961Y-123613095D01*
X179436961Y-123613095D02*
X179532200Y-123708333D01*
X179532200Y-123708333D02*
X179579819Y-123851190D01*
X179579819Y-123851190D02*
X179579819Y-124089285D01*
X179579819Y-122565476D02*
X179579819Y-123136904D01*
X179579819Y-122851190D02*
X178579819Y-122851190D01*
X178579819Y-122851190D02*
X178722676Y-122946428D01*
X178722676Y-122946428D02*
X178817914Y-123041666D01*
X178817914Y-123041666D02*
X178865533Y-123136904D01*
X179008390Y-121994047D02*
X178960771Y-122089285D01*
X178960771Y-122089285D02*
X178913152Y-122136904D01*
X178913152Y-122136904D02*
X178817914Y-122184523D01*
X178817914Y-122184523D02*
X178770295Y-122184523D01*
X178770295Y-122184523D02*
X178675057Y-122136904D01*
X178675057Y-122136904D02*
X178627438Y-122089285D01*
X178627438Y-122089285D02*
X178579819Y-121994047D01*
X178579819Y-121994047D02*
X178579819Y-121803571D01*
X178579819Y-121803571D02*
X178627438Y-121708333D01*
X178627438Y-121708333D02*
X178675057Y-121660714D01*
X178675057Y-121660714D02*
X178770295Y-121613095D01*
X178770295Y-121613095D02*
X178817914Y-121613095D01*
X178817914Y-121613095D02*
X178913152Y-121660714D01*
X178913152Y-121660714D02*
X178960771Y-121708333D01*
X178960771Y-121708333D02*
X179008390Y-121803571D01*
X179008390Y-121803571D02*
X179008390Y-121994047D01*
X179008390Y-121994047D02*
X179056009Y-122089285D01*
X179056009Y-122089285D02*
X179103628Y-122136904D01*
X179103628Y-122136904D02*
X179198866Y-122184523D01*
X179198866Y-122184523D02*
X179389342Y-122184523D01*
X179389342Y-122184523D02*
X179484580Y-122136904D01*
X179484580Y-122136904D02*
X179532200Y-122089285D01*
X179532200Y-122089285D02*
X179579819Y-121994047D01*
X179579819Y-121994047D02*
X179579819Y-121803571D01*
X179579819Y-121803571D02*
X179532200Y-121708333D01*
X179532200Y-121708333D02*
X179484580Y-121660714D01*
X179484580Y-121660714D02*
X179389342Y-121613095D01*
X179389342Y-121613095D02*
X179198866Y-121613095D01*
X179198866Y-121613095D02*
X179103628Y-121660714D01*
X179103628Y-121660714D02*
X179056009Y-121708333D01*
X179056009Y-121708333D02*
X179008390Y-121803571D01*
X179623569Y-126944404D02*
X178623569Y-126944404D01*
X179623569Y-126372976D02*
X179052140Y-126801547D01*
X178623569Y-126372976D02*
X179194997Y-126944404D01*
X160579819Y-124189285D02*
X159579819Y-124189285D01*
X159579819Y-124189285D02*
X159579819Y-123951190D01*
X159579819Y-123951190D02*
X159627438Y-123808333D01*
X159627438Y-123808333D02*
X159722676Y-123713095D01*
X159722676Y-123713095D02*
X159817914Y-123665476D01*
X159817914Y-123665476D02*
X160008390Y-123617857D01*
X160008390Y-123617857D02*
X160151247Y-123617857D01*
X160151247Y-123617857D02*
X160341723Y-123665476D01*
X160341723Y-123665476D02*
X160436961Y-123713095D01*
X160436961Y-123713095D02*
X160532200Y-123808333D01*
X160532200Y-123808333D02*
X160579819Y-123951190D01*
X160579819Y-123951190D02*
X160579819Y-124189285D01*
X160579819Y-122665476D02*
X160579819Y-123236904D01*
X160579819Y-122951190D02*
X159579819Y-122951190D01*
X159579819Y-122951190D02*
X159722676Y-123046428D01*
X159722676Y-123046428D02*
X159817914Y-123141666D01*
X159817914Y-123141666D02*
X159865533Y-123236904D01*
X159579819Y-122332142D02*
X159579819Y-121665476D01*
X159579819Y-121665476D02*
X160579819Y-122094047D01*
X160573569Y-126944404D02*
X159573569Y-126944404D01*
X160573569Y-126372976D02*
X160002140Y-126801547D01*
X159573569Y-126372976D02*
X160144997Y-126944404D01*
X141489819Y-124069285D02*
X140489819Y-124069285D01*
X140489819Y-124069285D02*
X140489819Y-123831190D01*
X140489819Y-123831190D02*
X140537438Y-123688333D01*
X140537438Y-123688333D02*
X140632676Y-123593095D01*
X140632676Y-123593095D02*
X140727914Y-123545476D01*
X140727914Y-123545476D02*
X140918390Y-123497857D01*
X140918390Y-123497857D02*
X141061247Y-123497857D01*
X141061247Y-123497857D02*
X141251723Y-123545476D01*
X141251723Y-123545476D02*
X141346961Y-123593095D01*
X141346961Y-123593095D02*
X141442200Y-123688333D01*
X141442200Y-123688333D02*
X141489819Y-123831190D01*
X141489819Y-123831190D02*
X141489819Y-124069285D01*
X141489819Y-122545476D02*
X141489819Y-123116904D01*
X141489819Y-122831190D02*
X140489819Y-122831190D01*
X140489819Y-122831190D02*
X140632676Y-122926428D01*
X140632676Y-122926428D02*
X140727914Y-123021666D01*
X140727914Y-123021666D02*
X140775533Y-123116904D01*
X140489819Y-121688333D02*
X140489819Y-121878809D01*
X140489819Y-121878809D02*
X140537438Y-121974047D01*
X140537438Y-121974047D02*
X140585057Y-122021666D01*
X140585057Y-122021666D02*
X140727914Y-122116904D01*
X140727914Y-122116904D02*
X140918390Y-122164523D01*
X140918390Y-122164523D02*
X141299342Y-122164523D01*
X141299342Y-122164523D02*
X141394580Y-122116904D01*
X141394580Y-122116904D02*
X141442200Y-122069285D01*
X141442200Y-122069285D02*
X141489819Y-121974047D01*
X141489819Y-121974047D02*
X141489819Y-121783571D01*
X141489819Y-121783571D02*
X141442200Y-121688333D01*
X141442200Y-121688333D02*
X141394580Y-121640714D01*
X141394580Y-121640714D02*
X141299342Y-121593095D01*
X141299342Y-121593095D02*
X141061247Y-121593095D01*
X141061247Y-121593095D02*
X140966009Y-121640714D01*
X140966009Y-121640714D02*
X140918390Y-121688333D01*
X140918390Y-121688333D02*
X140870771Y-121783571D01*
X140870771Y-121783571D02*
X140870771Y-121974047D01*
X140870771Y-121974047D02*
X140918390Y-122069285D01*
X140918390Y-122069285D02*
X140966009Y-122116904D01*
X140966009Y-122116904D02*
X141061247Y-122164523D01*
X141523569Y-126944404D02*
X140523569Y-126944404D01*
X141523569Y-126372976D02*
X140952140Y-126801547D01*
X140523569Y-126372976D02*
X141094997Y-126944404D01*
X132010417Y-56826950D02*
X132153274Y-56874569D01*
X132153274Y-56874569D02*
X132391369Y-56874569D01*
X132391369Y-56874569D02*
X132486607Y-56826950D01*
X132486607Y-56826950D02*
X132534226Y-56779330D01*
X132534226Y-56779330D02*
X132581845Y-56684092D01*
X132581845Y-56684092D02*
X132581845Y-56588854D01*
X132581845Y-56588854D02*
X132534226Y-56493616D01*
X132534226Y-56493616D02*
X132486607Y-56445997D01*
X132486607Y-56445997D02*
X132391369Y-56398378D01*
X132391369Y-56398378D02*
X132200893Y-56350759D01*
X132200893Y-56350759D02*
X132105655Y-56303140D01*
X132105655Y-56303140D02*
X132058036Y-56255521D01*
X132058036Y-56255521D02*
X132010417Y-56160283D01*
X132010417Y-56160283D02*
X132010417Y-56065045D01*
X132010417Y-56065045D02*
X132058036Y-55969807D01*
X132058036Y-55969807D02*
X132105655Y-55922188D01*
X132105655Y-55922188D02*
X132200893Y-55874569D01*
X132200893Y-55874569D02*
X132438988Y-55874569D01*
X132438988Y-55874569D02*
X132581845Y-55922188D01*
X132915179Y-55874569D02*
X133153274Y-56874569D01*
X133153274Y-56874569D02*
X133343750Y-56160283D01*
X133343750Y-56160283D02*
X133534226Y-56874569D01*
X133534226Y-56874569D02*
X133772322Y-55874569D01*
X134105655Y-55969807D02*
X134153274Y-55922188D01*
X134153274Y-55922188D02*
X134248512Y-55874569D01*
X134248512Y-55874569D02*
X134486607Y-55874569D01*
X134486607Y-55874569D02*
X134581845Y-55922188D01*
X134581845Y-55922188D02*
X134629464Y-55969807D01*
X134629464Y-55969807D02*
X134677083Y-56065045D01*
X134677083Y-56065045D02*
X134677083Y-56160283D01*
X134677083Y-56160283D02*
X134629464Y-56303140D01*
X134629464Y-56303140D02*
X134058036Y-56874569D01*
X134058036Y-56874569D02*
X134677083Y-56874569D01*
X122469819Y-123999285D02*
X121469819Y-123999285D01*
X121469819Y-123999285D02*
X121469819Y-123761190D01*
X121469819Y-123761190D02*
X121517438Y-123618333D01*
X121517438Y-123618333D02*
X121612676Y-123523095D01*
X121612676Y-123523095D02*
X121707914Y-123475476D01*
X121707914Y-123475476D02*
X121898390Y-123427857D01*
X121898390Y-123427857D02*
X122041247Y-123427857D01*
X122041247Y-123427857D02*
X122231723Y-123475476D01*
X122231723Y-123475476D02*
X122326961Y-123523095D01*
X122326961Y-123523095D02*
X122422200Y-123618333D01*
X122422200Y-123618333D02*
X122469819Y-123761190D01*
X122469819Y-123761190D02*
X122469819Y-123999285D01*
X122469819Y-122475476D02*
X122469819Y-123046904D01*
X122469819Y-122761190D02*
X121469819Y-122761190D01*
X121469819Y-122761190D02*
X121612676Y-122856428D01*
X121612676Y-122856428D02*
X121707914Y-122951666D01*
X121707914Y-122951666D02*
X121755533Y-123046904D01*
X121469819Y-121570714D02*
X121469819Y-122046904D01*
X121469819Y-122046904D02*
X121946009Y-122094523D01*
X121946009Y-122094523D02*
X121898390Y-122046904D01*
X121898390Y-122046904D02*
X121850771Y-121951666D01*
X121850771Y-121951666D02*
X121850771Y-121713571D01*
X121850771Y-121713571D02*
X121898390Y-121618333D01*
X121898390Y-121618333D02*
X121946009Y-121570714D01*
X121946009Y-121570714D02*
X122041247Y-121523095D01*
X122041247Y-121523095D02*
X122279342Y-121523095D01*
X122279342Y-121523095D02*
X122374580Y-121570714D01*
X122374580Y-121570714D02*
X122422200Y-121618333D01*
X122422200Y-121618333D02*
X122469819Y-121713571D01*
X122469819Y-121713571D02*
X122469819Y-121951666D01*
X122469819Y-121951666D02*
X122422200Y-122046904D01*
X122422200Y-122046904D02*
X122374580Y-122094523D01*
X122473569Y-126944404D02*
X121473569Y-126944404D01*
X122473569Y-126372976D02*
X121902140Y-126801547D01*
X121473569Y-126372976D02*
X122044997Y-126944404D01*
X141433557Y-66386785D02*
X140533557Y-66386785D01*
X140533557Y-66386785D02*
X140533557Y-66172499D01*
X140533557Y-66172499D02*
X140576414Y-66043928D01*
X140576414Y-66043928D02*
X140662128Y-65958213D01*
X140662128Y-65958213D02*
X140747842Y-65915356D01*
X140747842Y-65915356D02*
X140919271Y-65872499D01*
X140919271Y-65872499D02*
X141047842Y-65872499D01*
X141047842Y-65872499D02*
X141219271Y-65915356D01*
X141219271Y-65915356D02*
X141304985Y-65958213D01*
X141304985Y-65958213D02*
X141390700Y-66043928D01*
X141390700Y-66043928D02*
X141433557Y-66172499D01*
X141433557Y-66172499D02*
X141433557Y-66386785D01*
X140833557Y-65101071D02*
X141433557Y-65101071D01*
X140490700Y-65315356D02*
X141133557Y-65529642D01*
X141133557Y-65529642D02*
X141133557Y-64972499D01*
X141523569Y-69794404D02*
X140523569Y-69794404D01*
X141523569Y-69222976D02*
X140952140Y-69651547D01*
X140523569Y-69222976D02*
X141094997Y-69794404D01*
X131534226Y-94926950D02*
X131677083Y-94974569D01*
X131677083Y-94974569D02*
X131915178Y-94974569D01*
X131915178Y-94974569D02*
X132010416Y-94926950D01*
X132010416Y-94926950D02*
X132058035Y-94879330D01*
X132058035Y-94879330D02*
X132105654Y-94784092D01*
X132105654Y-94784092D02*
X132105654Y-94688854D01*
X132105654Y-94688854D02*
X132058035Y-94593616D01*
X132058035Y-94593616D02*
X132010416Y-94545997D01*
X132010416Y-94545997D02*
X131915178Y-94498378D01*
X131915178Y-94498378D02*
X131724702Y-94450759D01*
X131724702Y-94450759D02*
X131629464Y-94403140D01*
X131629464Y-94403140D02*
X131581845Y-94355521D01*
X131581845Y-94355521D02*
X131534226Y-94260283D01*
X131534226Y-94260283D02*
X131534226Y-94165045D01*
X131534226Y-94165045D02*
X131581845Y-94069807D01*
X131581845Y-94069807D02*
X131629464Y-94022188D01*
X131629464Y-94022188D02*
X131724702Y-93974569D01*
X131724702Y-93974569D02*
X131962797Y-93974569D01*
X131962797Y-93974569D02*
X132105654Y-94022188D01*
X132438988Y-93974569D02*
X132677083Y-94974569D01*
X132677083Y-94974569D02*
X132867559Y-94260283D01*
X132867559Y-94260283D02*
X133058035Y-94974569D01*
X133058035Y-94974569D02*
X133296131Y-93974569D01*
X134200892Y-94974569D02*
X133629464Y-94974569D01*
X133915178Y-94974569D02*
X133915178Y-93974569D01*
X133915178Y-93974569D02*
X133819940Y-94117426D01*
X133819940Y-94117426D02*
X133724702Y-94212664D01*
X133724702Y-94212664D02*
X133629464Y-94260283D01*
X134819940Y-93974569D02*
X134915178Y-93974569D01*
X134915178Y-93974569D02*
X135010416Y-94022188D01*
X135010416Y-94022188D02*
X135058035Y-94069807D01*
X135058035Y-94069807D02*
X135105654Y-94165045D01*
X135105654Y-94165045D02*
X135153273Y-94355521D01*
X135153273Y-94355521D02*
X135153273Y-94593616D01*
X135153273Y-94593616D02*
X135105654Y-94784092D01*
X135105654Y-94784092D02*
X135058035Y-94879330D01*
X135058035Y-94879330D02*
X135010416Y-94926950D01*
X135010416Y-94926950D02*
X134915178Y-94974569D01*
X134915178Y-94974569D02*
X134819940Y-94974569D01*
X134819940Y-94974569D02*
X134724702Y-94926950D01*
X134724702Y-94926950D02*
X134677083Y-94879330D01*
X134677083Y-94879330D02*
X134629464Y-94784092D01*
X134629464Y-94784092D02*
X134581845Y-94593616D01*
X134581845Y-94593616D02*
X134581845Y-94355521D01*
X134581845Y-94355521D02*
X134629464Y-94165045D01*
X134629464Y-94165045D02*
X134677083Y-94069807D01*
X134677083Y-94069807D02*
X134724702Y-94022188D01*
X134724702Y-94022188D02*
X134819940Y-93974569D01*
X169634226Y-113976950D02*
X169777083Y-114024569D01*
X169777083Y-114024569D02*
X170015178Y-114024569D01*
X170015178Y-114024569D02*
X170110416Y-113976950D01*
X170110416Y-113976950D02*
X170158035Y-113929330D01*
X170158035Y-113929330D02*
X170205654Y-113834092D01*
X170205654Y-113834092D02*
X170205654Y-113738854D01*
X170205654Y-113738854D02*
X170158035Y-113643616D01*
X170158035Y-113643616D02*
X170110416Y-113595997D01*
X170110416Y-113595997D02*
X170015178Y-113548378D01*
X170015178Y-113548378D02*
X169824702Y-113500759D01*
X169824702Y-113500759D02*
X169729464Y-113453140D01*
X169729464Y-113453140D02*
X169681845Y-113405521D01*
X169681845Y-113405521D02*
X169634226Y-113310283D01*
X169634226Y-113310283D02*
X169634226Y-113215045D01*
X169634226Y-113215045D02*
X169681845Y-113119807D01*
X169681845Y-113119807D02*
X169729464Y-113072188D01*
X169729464Y-113072188D02*
X169824702Y-113024569D01*
X169824702Y-113024569D02*
X170062797Y-113024569D01*
X170062797Y-113024569D02*
X170205654Y-113072188D01*
X170538988Y-113024569D02*
X170777083Y-114024569D01*
X170777083Y-114024569D02*
X170967559Y-113310283D01*
X170967559Y-113310283D02*
X171158035Y-114024569D01*
X171158035Y-114024569D02*
X171396131Y-113024569D01*
X172300892Y-114024569D02*
X171729464Y-114024569D01*
X172015178Y-114024569D02*
X172015178Y-113024569D01*
X172015178Y-113024569D02*
X171919940Y-113167426D01*
X171919940Y-113167426D02*
X171824702Y-113262664D01*
X171824702Y-113262664D02*
X171729464Y-113310283D01*
X173158035Y-113024569D02*
X172967559Y-113024569D01*
X172967559Y-113024569D02*
X172872321Y-113072188D01*
X172872321Y-113072188D02*
X172824702Y-113119807D01*
X172824702Y-113119807D02*
X172729464Y-113262664D01*
X172729464Y-113262664D02*
X172681845Y-113453140D01*
X172681845Y-113453140D02*
X172681845Y-113834092D01*
X172681845Y-113834092D02*
X172729464Y-113929330D01*
X172729464Y-113929330D02*
X172777083Y-113976950D01*
X172777083Y-113976950D02*
X172872321Y-114024569D01*
X172872321Y-114024569D02*
X173062797Y-114024569D01*
X173062797Y-114024569D02*
X173158035Y-113976950D01*
X173158035Y-113976950D02*
X173205654Y-113929330D01*
X173205654Y-113929330D02*
X173253273Y-113834092D01*
X173253273Y-113834092D02*
X173253273Y-113595997D01*
X173253273Y-113595997D02*
X173205654Y-113500759D01*
X173205654Y-113500759D02*
X173158035Y-113453140D01*
X173158035Y-113453140D02*
X173062797Y-113405521D01*
X173062797Y-113405521D02*
X172872321Y-113405521D01*
X172872321Y-113405521D02*
X172777083Y-113453140D01*
X172777083Y-113453140D02*
X172729464Y-113500759D01*
X172729464Y-113500759D02*
X172681845Y-113595997D01*
X150584226Y-94926950D02*
X150727083Y-94974569D01*
X150727083Y-94974569D02*
X150965178Y-94974569D01*
X150965178Y-94974569D02*
X151060416Y-94926950D01*
X151060416Y-94926950D02*
X151108035Y-94879330D01*
X151108035Y-94879330D02*
X151155654Y-94784092D01*
X151155654Y-94784092D02*
X151155654Y-94688854D01*
X151155654Y-94688854D02*
X151108035Y-94593616D01*
X151108035Y-94593616D02*
X151060416Y-94545997D01*
X151060416Y-94545997D02*
X150965178Y-94498378D01*
X150965178Y-94498378D02*
X150774702Y-94450759D01*
X150774702Y-94450759D02*
X150679464Y-94403140D01*
X150679464Y-94403140D02*
X150631845Y-94355521D01*
X150631845Y-94355521D02*
X150584226Y-94260283D01*
X150584226Y-94260283D02*
X150584226Y-94165045D01*
X150584226Y-94165045D02*
X150631845Y-94069807D01*
X150631845Y-94069807D02*
X150679464Y-94022188D01*
X150679464Y-94022188D02*
X150774702Y-93974569D01*
X150774702Y-93974569D02*
X151012797Y-93974569D01*
X151012797Y-93974569D02*
X151155654Y-94022188D01*
X151488988Y-93974569D02*
X151727083Y-94974569D01*
X151727083Y-94974569D02*
X151917559Y-94260283D01*
X151917559Y-94260283D02*
X152108035Y-94974569D01*
X152108035Y-94974569D02*
X152346131Y-93974569D01*
X153250892Y-94974569D02*
X152679464Y-94974569D01*
X152965178Y-94974569D02*
X152965178Y-93974569D01*
X152965178Y-93974569D02*
X152869940Y-94117426D01*
X152869940Y-94117426D02*
X152774702Y-94212664D01*
X152774702Y-94212664D02*
X152679464Y-94260283D01*
X154203273Y-94974569D02*
X153631845Y-94974569D01*
X153917559Y-94974569D02*
X153917559Y-93974569D01*
X153917559Y-93974569D02*
X153822321Y-94117426D01*
X153822321Y-94117426D02*
X153727083Y-94212664D01*
X153727083Y-94212664D02*
X153631845Y-94260283D01*
X141539819Y-104949285D02*
X140539819Y-104949285D01*
X140539819Y-104949285D02*
X140539819Y-104711190D01*
X140539819Y-104711190D02*
X140587438Y-104568333D01*
X140587438Y-104568333D02*
X140682676Y-104473095D01*
X140682676Y-104473095D02*
X140777914Y-104425476D01*
X140777914Y-104425476D02*
X140968390Y-104377857D01*
X140968390Y-104377857D02*
X141111247Y-104377857D01*
X141111247Y-104377857D02*
X141301723Y-104425476D01*
X141301723Y-104425476D02*
X141396961Y-104473095D01*
X141396961Y-104473095D02*
X141492200Y-104568333D01*
X141492200Y-104568333D02*
X141539819Y-104711190D01*
X141539819Y-104711190D02*
X141539819Y-104949285D01*
X141539819Y-103425476D02*
X141539819Y-103996904D01*
X141539819Y-103711190D02*
X140539819Y-103711190D01*
X140539819Y-103711190D02*
X140682676Y-103806428D01*
X140682676Y-103806428D02*
X140777914Y-103901666D01*
X140777914Y-103901666D02*
X140825533Y-103996904D01*
X140635057Y-103044523D02*
X140587438Y-102996904D01*
X140587438Y-102996904D02*
X140539819Y-102901666D01*
X140539819Y-102901666D02*
X140539819Y-102663571D01*
X140539819Y-102663571D02*
X140587438Y-102568333D01*
X140587438Y-102568333D02*
X140635057Y-102520714D01*
X140635057Y-102520714D02*
X140730295Y-102473095D01*
X140730295Y-102473095D02*
X140825533Y-102473095D01*
X140825533Y-102473095D02*
X140968390Y-102520714D01*
X140968390Y-102520714D02*
X141539819Y-103092142D01*
X141539819Y-103092142D02*
X141539819Y-102473095D01*
X141523569Y-107894404D02*
X140523569Y-107894404D01*
X141523569Y-107322976D02*
X140952140Y-107751547D01*
X140523569Y-107322976D02*
X141094997Y-107894404D01*
X141499819Y-85283094D02*
X140499819Y-85283094D01*
X140499819Y-85283094D02*
X140499819Y-85044999D01*
X140499819Y-85044999D02*
X140547438Y-84902142D01*
X140547438Y-84902142D02*
X140642676Y-84806904D01*
X140642676Y-84806904D02*
X140737914Y-84759285D01*
X140737914Y-84759285D02*
X140928390Y-84711666D01*
X140928390Y-84711666D02*
X141071247Y-84711666D01*
X141071247Y-84711666D02*
X141261723Y-84759285D01*
X141261723Y-84759285D02*
X141356961Y-84806904D01*
X141356961Y-84806904D02*
X141452200Y-84902142D01*
X141452200Y-84902142D02*
X141499819Y-85044999D01*
X141499819Y-85044999D02*
X141499819Y-85283094D01*
X140928390Y-84140237D02*
X140880771Y-84235475D01*
X140880771Y-84235475D02*
X140833152Y-84283094D01*
X140833152Y-84283094D02*
X140737914Y-84330713D01*
X140737914Y-84330713D02*
X140690295Y-84330713D01*
X140690295Y-84330713D02*
X140595057Y-84283094D01*
X140595057Y-84283094D02*
X140547438Y-84235475D01*
X140547438Y-84235475D02*
X140499819Y-84140237D01*
X140499819Y-84140237D02*
X140499819Y-83949761D01*
X140499819Y-83949761D02*
X140547438Y-83854523D01*
X140547438Y-83854523D02*
X140595057Y-83806904D01*
X140595057Y-83806904D02*
X140690295Y-83759285D01*
X140690295Y-83759285D02*
X140737914Y-83759285D01*
X140737914Y-83759285D02*
X140833152Y-83806904D01*
X140833152Y-83806904D02*
X140880771Y-83854523D01*
X140880771Y-83854523D02*
X140928390Y-83949761D01*
X140928390Y-83949761D02*
X140928390Y-84140237D01*
X140928390Y-84140237D02*
X140976009Y-84235475D01*
X140976009Y-84235475D02*
X141023628Y-84283094D01*
X141023628Y-84283094D02*
X141118866Y-84330713D01*
X141118866Y-84330713D02*
X141309342Y-84330713D01*
X141309342Y-84330713D02*
X141404580Y-84283094D01*
X141404580Y-84283094D02*
X141452200Y-84235475D01*
X141452200Y-84235475D02*
X141499819Y-84140237D01*
X141499819Y-84140237D02*
X141499819Y-83949761D01*
X141499819Y-83949761D02*
X141452200Y-83854523D01*
X141452200Y-83854523D02*
X141404580Y-83806904D01*
X141404580Y-83806904D02*
X141309342Y-83759285D01*
X141309342Y-83759285D02*
X141118866Y-83759285D01*
X141118866Y-83759285D02*
X141023628Y-83806904D01*
X141023628Y-83806904D02*
X140976009Y-83854523D01*
X140976009Y-83854523D02*
X140928390Y-83949761D01*
X141523569Y-88844404D02*
X140523569Y-88844404D01*
X141523569Y-88272976D02*
X140952140Y-88701547D01*
X140523569Y-88272976D02*
X141094997Y-88844404D01*
X122433557Y-66429285D02*
X121533557Y-66429285D01*
X121533557Y-66429285D02*
X121533557Y-66214999D01*
X121533557Y-66214999D02*
X121576414Y-66086428D01*
X121576414Y-66086428D02*
X121662128Y-66000713D01*
X121662128Y-66000713D02*
X121747842Y-65957856D01*
X121747842Y-65957856D02*
X121919271Y-65914999D01*
X121919271Y-65914999D02*
X122047842Y-65914999D01*
X122047842Y-65914999D02*
X122219271Y-65957856D01*
X122219271Y-65957856D02*
X122304985Y-66000713D01*
X122304985Y-66000713D02*
X122390700Y-66086428D01*
X122390700Y-66086428D02*
X122433557Y-66214999D01*
X122433557Y-66214999D02*
X122433557Y-66429285D01*
X121533557Y-65614999D02*
X121533557Y-65057856D01*
X121533557Y-65057856D02*
X121876414Y-65357856D01*
X121876414Y-65357856D02*
X121876414Y-65229285D01*
X121876414Y-65229285D02*
X121919271Y-65143571D01*
X121919271Y-65143571D02*
X121962128Y-65100713D01*
X121962128Y-65100713D02*
X122047842Y-65057856D01*
X122047842Y-65057856D02*
X122262128Y-65057856D01*
X122262128Y-65057856D02*
X122347842Y-65100713D01*
X122347842Y-65100713D02*
X122390700Y-65143571D01*
X122390700Y-65143571D02*
X122433557Y-65229285D01*
X122433557Y-65229285D02*
X122433557Y-65486428D01*
X122433557Y-65486428D02*
X122390700Y-65572142D01*
X122390700Y-65572142D02*
X122347842Y-65614999D01*
X122473569Y-69794404D02*
X121473569Y-69794404D01*
X122473569Y-69222976D02*
X121902140Y-69651547D01*
X121473569Y-69222976D02*
X122044997Y-69794404D01*
X160579819Y-66403094D02*
X159579819Y-66403094D01*
X159579819Y-66403094D02*
X159579819Y-66164999D01*
X159579819Y-66164999D02*
X159627438Y-66022142D01*
X159627438Y-66022142D02*
X159722676Y-65926904D01*
X159722676Y-65926904D02*
X159817914Y-65879285D01*
X159817914Y-65879285D02*
X160008390Y-65831666D01*
X160008390Y-65831666D02*
X160151247Y-65831666D01*
X160151247Y-65831666D02*
X160341723Y-65879285D01*
X160341723Y-65879285D02*
X160436961Y-65926904D01*
X160436961Y-65926904D02*
X160532200Y-66022142D01*
X160532200Y-66022142D02*
X160579819Y-66164999D01*
X160579819Y-66164999D02*
X160579819Y-66403094D01*
X159579819Y-64926904D02*
X159579819Y-65403094D01*
X159579819Y-65403094D02*
X160056009Y-65450713D01*
X160056009Y-65450713D02*
X160008390Y-65403094D01*
X160008390Y-65403094D02*
X159960771Y-65307856D01*
X159960771Y-65307856D02*
X159960771Y-65069761D01*
X159960771Y-65069761D02*
X160008390Y-64974523D01*
X160008390Y-64974523D02*
X160056009Y-64926904D01*
X160056009Y-64926904D02*
X160151247Y-64879285D01*
X160151247Y-64879285D02*
X160389342Y-64879285D01*
X160389342Y-64879285D02*
X160484580Y-64926904D01*
X160484580Y-64926904D02*
X160532200Y-64974523D01*
X160532200Y-64974523D02*
X160579819Y-65069761D01*
X160579819Y-65069761D02*
X160579819Y-65307856D01*
X160579819Y-65307856D02*
X160532200Y-65403094D01*
X160532200Y-65403094D02*
X160484580Y-65450713D01*
X160573569Y-69794404D02*
X159573569Y-69794404D01*
X160573569Y-69222976D02*
X160002140Y-69651547D01*
X159573569Y-69222976D02*
X160144997Y-69794404D01*
X122479819Y-85263094D02*
X121479819Y-85263094D01*
X121479819Y-85263094D02*
X121479819Y-85024999D01*
X121479819Y-85024999D02*
X121527438Y-84882142D01*
X121527438Y-84882142D02*
X121622676Y-84786904D01*
X121622676Y-84786904D02*
X121717914Y-84739285D01*
X121717914Y-84739285D02*
X121908390Y-84691666D01*
X121908390Y-84691666D02*
X122051247Y-84691666D01*
X122051247Y-84691666D02*
X122241723Y-84739285D01*
X122241723Y-84739285D02*
X122336961Y-84786904D01*
X122336961Y-84786904D02*
X122432200Y-84882142D01*
X122432200Y-84882142D02*
X122479819Y-85024999D01*
X122479819Y-85024999D02*
X122479819Y-85263094D01*
X121479819Y-84358332D02*
X121479819Y-83691666D01*
X121479819Y-83691666D02*
X122479819Y-84120237D01*
X122473569Y-88844404D02*
X121473569Y-88844404D01*
X122473569Y-88272976D02*
X121902140Y-88701547D01*
X121473569Y-88272976D02*
X122044997Y-88844404D01*
X179609819Y-66463094D02*
X178609819Y-66463094D01*
X178609819Y-66463094D02*
X178609819Y-66224999D01*
X178609819Y-66224999D02*
X178657438Y-66082142D01*
X178657438Y-66082142D02*
X178752676Y-65986904D01*
X178752676Y-65986904D02*
X178847914Y-65939285D01*
X178847914Y-65939285D02*
X179038390Y-65891666D01*
X179038390Y-65891666D02*
X179181247Y-65891666D01*
X179181247Y-65891666D02*
X179371723Y-65939285D01*
X179371723Y-65939285D02*
X179466961Y-65986904D01*
X179466961Y-65986904D02*
X179562200Y-66082142D01*
X179562200Y-66082142D02*
X179609819Y-66224999D01*
X179609819Y-66224999D02*
X179609819Y-66463094D01*
X178609819Y-65034523D02*
X178609819Y-65224999D01*
X178609819Y-65224999D02*
X178657438Y-65320237D01*
X178657438Y-65320237D02*
X178705057Y-65367856D01*
X178705057Y-65367856D02*
X178847914Y-65463094D01*
X178847914Y-65463094D02*
X179038390Y-65510713D01*
X179038390Y-65510713D02*
X179419342Y-65510713D01*
X179419342Y-65510713D02*
X179514580Y-65463094D01*
X179514580Y-65463094D02*
X179562200Y-65415475D01*
X179562200Y-65415475D02*
X179609819Y-65320237D01*
X179609819Y-65320237D02*
X179609819Y-65129761D01*
X179609819Y-65129761D02*
X179562200Y-65034523D01*
X179562200Y-65034523D02*
X179514580Y-64986904D01*
X179514580Y-64986904D02*
X179419342Y-64939285D01*
X179419342Y-64939285D02*
X179181247Y-64939285D01*
X179181247Y-64939285D02*
X179086009Y-64986904D01*
X179086009Y-64986904D02*
X179038390Y-65034523D01*
X179038390Y-65034523D02*
X178990771Y-65129761D01*
X178990771Y-65129761D02*
X178990771Y-65320237D01*
X178990771Y-65320237D02*
X179038390Y-65415475D01*
X179038390Y-65415475D02*
X179086009Y-65463094D01*
X179086009Y-65463094D02*
X179181247Y-65510713D01*
X179623569Y-69794404D02*
X178623569Y-69794404D01*
X179623569Y-69222976D02*
X179052140Y-69651547D01*
X178623569Y-69222976D02*
X179194997Y-69794404D01*
X179639819Y-104909285D02*
X178639819Y-104909285D01*
X178639819Y-104909285D02*
X178639819Y-104671190D01*
X178639819Y-104671190D02*
X178687438Y-104528333D01*
X178687438Y-104528333D02*
X178782676Y-104433095D01*
X178782676Y-104433095D02*
X178877914Y-104385476D01*
X178877914Y-104385476D02*
X179068390Y-104337857D01*
X179068390Y-104337857D02*
X179211247Y-104337857D01*
X179211247Y-104337857D02*
X179401723Y-104385476D01*
X179401723Y-104385476D02*
X179496961Y-104433095D01*
X179496961Y-104433095D02*
X179592200Y-104528333D01*
X179592200Y-104528333D02*
X179639819Y-104671190D01*
X179639819Y-104671190D02*
X179639819Y-104909285D01*
X179639819Y-103385476D02*
X179639819Y-103956904D01*
X179639819Y-103671190D02*
X178639819Y-103671190D01*
X178639819Y-103671190D02*
X178782676Y-103766428D01*
X178782676Y-103766428D02*
X178877914Y-103861666D01*
X178877914Y-103861666D02*
X178925533Y-103956904D01*
X178973152Y-102528333D02*
X179639819Y-102528333D01*
X178592200Y-102766428D02*
X179306485Y-103004523D01*
X179306485Y-103004523D02*
X179306485Y-102385476D01*
X179623569Y-107894404D02*
X178623569Y-107894404D01*
X179623569Y-107322976D02*
X179052140Y-107751547D01*
X178623569Y-107322976D02*
X179194997Y-107894404D01*
X170110417Y-75876950D02*
X170253274Y-75924569D01*
X170253274Y-75924569D02*
X170491369Y-75924569D01*
X170491369Y-75924569D02*
X170586607Y-75876950D01*
X170586607Y-75876950D02*
X170634226Y-75829330D01*
X170634226Y-75829330D02*
X170681845Y-75734092D01*
X170681845Y-75734092D02*
X170681845Y-75638854D01*
X170681845Y-75638854D02*
X170634226Y-75543616D01*
X170634226Y-75543616D02*
X170586607Y-75495997D01*
X170586607Y-75495997D02*
X170491369Y-75448378D01*
X170491369Y-75448378D02*
X170300893Y-75400759D01*
X170300893Y-75400759D02*
X170205655Y-75353140D01*
X170205655Y-75353140D02*
X170158036Y-75305521D01*
X170158036Y-75305521D02*
X170110417Y-75210283D01*
X170110417Y-75210283D02*
X170110417Y-75115045D01*
X170110417Y-75115045D02*
X170158036Y-75019807D01*
X170158036Y-75019807D02*
X170205655Y-74972188D01*
X170205655Y-74972188D02*
X170300893Y-74924569D01*
X170300893Y-74924569D02*
X170538988Y-74924569D01*
X170538988Y-74924569D02*
X170681845Y-74972188D01*
X171015179Y-74924569D02*
X171253274Y-75924569D01*
X171253274Y-75924569D02*
X171443750Y-75210283D01*
X171443750Y-75210283D02*
X171634226Y-75924569D01*
X171634226Y-75924569D02*
X171872322Y-74924569D01*
X172396131Y-75353140D02*
X172300893Y-75305521D01*
X172300893Y-75305521D02*
X172253274Y-75257902D01*
X172253274Y-75257902D02*
X172205655Y-75162664D01*
X172205655Y-75162664D02*
X172205655Y-75115045D01*
X172205655Y-75115045D02*
X172253274Y-75019807D01*
X172253274Y-75019807D02*
X172300893Y-74972188D01*
X172300893Y-74972188D02*
X172396131Y-74924569D01*
X172396131Y-74924569D02*
X172586607Y-74924569D01*
X172586607Y-74924569D02*
X172681845Y-74972188D01*
X172681845Y-74972188D02*
X172729464Y-75019807D01*
X172729464Y-75019807D02*
X172777083Y-75115045D01*
X172777083Y-75115045D02*
X172777083Y-75162664D01*
X172777083Y-75162664D02*
X172729464Y-75257902D01*
X172729464Y-75257902D02*
X172681845Y-75305521D01*
X172681845Y-75305521D02*
X172586607Y-75353140D01*
X172586607Y-75353140D02*
X172396131Y-75353140D01*
X172396131Y-75353140D02*
X172300893Y-75400759D01*
X172300893Y-75400759D02*
X172253274Y-75448378D01*
X172253274Y-75448378D02*
X172205655Y-75543616D01*
X172205655Y-75543616D02*
X172205655Y-75734092D01*
X172205655Y-75734092D02*
X172253274Y-75829330D01*
X172253274Y-75829330D02*
X172300893Y-75876950D01*
X172300893Y-75876950D02*
X172396131Y-75924569D01*
X172396131Y-75924569D02*
X172586607Y-75924569D01*
X172586607Y-75924569D02*
X172681845Y-75876950D01*
X172681845Y-75876950D02*
X172729464Y-75829330D01*
X172729464Y-75829330D02*
X172777083Y-75734092D01*
X172777083Y-75734092D02*
X172777083Y-75543616D01*
X172777083Y-75543616D02*
X172729464Y-75448378D01*
X172729464Y-75448378D02*
X172681845Y-75400759D01*
X172681845Y-75400759D02*
X172586607Y-75353140D01*
X112960417Y-94926950D02*
X113103274Y-94974569D01*
X113103274Y-94974569D02*
X113341369Y-94974569D01*
X113341369Y-94974569D02*
X113436607Y-94926950D01*
X113436607Y-94926950D02*
X113484226Y-94879330D01*
X113484226Y-94879330D02*
X113531845Y-94784092D01*
X113531845Y-94784092D02*
X113531845Y-94688854D01*
X113531845Y-94688854D02*
X113484226Y-94593616D01*
X113484226Y-94593616D02*
X113436607Y-94545997D01*
X113436607Y-94545997D02*
X113341369Y-94498378D01*
X113341369Y-94498378D02*
X113150893Y-94450759D01*
X113150893Y-94450759D02*
X113055655Y-94403140D01*
X113055655Y-94403140D02*
X113008036Y-94355521D01*
X113008036Y-94355521D02*
X112960417Y-94260283D01*
X112960417Y-94260283D02*
X112960417Y-94165045D01*
X112960417Y-94165045D02*
X113008036Y-94069807D01*
X113008036Y-94069807D02*
X113055655Y-94022188D01*
X113055655Y-94022188D02*
X113150893Y-93974569D01*
X113150893Y-93974569D02*
X113388988Y-93974569D01*
X113388988Y-93974569D02*
X113531845Y-94022188D01*
X113865179Y-93974569D02*
X114103274Y-94974569D01*
X114103274Y-94974569D02*
X114293750Y-94260283D01*
X114293750Y-94260283D02*
X114484226Y-94974569D01*
X114484226Y-94974569D02*
X114722322Y-93974569D01*
X115150893Y-94974569D02*
X115341369Y-94974569D01*
X115341369Y-94974569D02*
X115436607Y-94926950D01*
X115436607Y-94926950D02*
X115484226Y-94879330D01*
X115484226Y-94879330D02*
X115579464Y-94736473D01*
X115579464Y-94736473D02*
X115627083Y-94545997D01*
X115627083Y-94545997D02*
X115627083Y-94165045D01*
X115627083Y-94165045D02*
X115579464Y-94069807D01*
X115579464Y-94069807D02*
X115531845Y-94022188D01*
X115531845Y-94022188D02*
X115436607Y-93974569D01*
X115436607Y-93974569D02*
X115246131Y-93974569D01*
X115246131Y-93974569D02*
X115150893Y-94022188D01*
X115150893Y-94022188D02*
X115103274Y-94069807D01*
X115103274Y-94069807D02*
X115055655Y-94165045D01*
X115055655Y-94165045D02*
X115055655Y-94403140D01*
X115055655Y-94403140D02*
X115103274Y-94498378D01*
X115103274Y-94498378D02*
X115150893Y-94545997D01*
X115150893Y-94545997D02*
X115246131Y-94593616D01*
X115246131Y-94593616D02*
X115436607Y-94593616D01*
X115436607Y-94593616D02*
X115531845Y-94545997D01*
X115531845Y-94545997D02*
X115579464Y-94498378D01*
X115579464Y-94498378D02*
X115627083Y-94403140D01*
X151060417Y-56826950D02*
X151203274Y-56874569D01*
X151203274Y-56874569D02*
X151441369Y-56874569D01*
X151441369Y-56874569D02*
X151536607Y-56826950D01*
X151536607Y-56826950D02*
X151584226Y-56779330D01*
X151584226Y-56779330D02*
X151631845Y-56684092D01*
X151631845Y-56684092D02*
X151631845Y-56588854D01*
X151631845Y-56588854D02*
X151584226Y-56493616D01*
X151584226Y-56493616D02*
X151536607Y-56445997D01*
X151536607Y-56445997D02*
X151441369Y-56398378D01*
X151441369Y-56398378D02*
X151250893Y-56350759D01*
X151250893Y-56350759D02*
X151155655Y-56303140D01*
X151155655Y-56303140D02*
X151108036Y-56255521D01*
X151108036Y-56255521D02*
X151060417Y-56160283D01*
X151060417Y-56160283D02*
X151060417Y-56065045D01*
X151060417Y-56065045D02*
X151108036Y-55969807D01*
X151108036Y-55969807D02*
X151155655Y-55922188D01*
X151155655Y-55922188D02*
X151250893Y-55874569D01*
X151250893Y-55874569D02*
X151488988Y-55874569D01*
X151488988Y-55874569D02*
X151631845Y-55922188D01*
X151965179Y-55874569D02*
X152203274Y-56874569D01*
X152203274Y-56874569D02*
X152393750Y-56160283D01*
X152393750Y-56160283D02*
X152584226Y-56874569D01*
X152584226Y-56874569D02*
X152822322Y-55874569D01*
X153108036Y-55874569D02*
X153727083Y-55874569D01*
X153727083Y-55874569D02*
X153393750Y-56255521D01*
X153393750Y-56255521D02*
X153536607Y-56255521D01*
X153536607Y-56255521D02*
X153631845Y-56303140D01*
X153631845Y-56303140D02*
X153679464Y-56350759D01*
X153679464Y-56350759D02*
X153727083Y-56445997D01*
X153727083Y-56445997D02*
X153727083Y-56684092D01*
X153727083Y-56684092D02*
X153679464Y-56779330D01*
X153679464Y-56779330D02*
X153631845Y-56826950D01*
X153631845Y-56826950D02*
X153536607Y-56874569D01*
X153536607Y-56874569D02*
X153250893Y-56874569D01*
X153250893Y-56874569D02*
X153155655Y-56826950D01*
X153155655Y-56826950D02*
X153108036Y-56779330D01*
X179639819Y-85869285D02*
X178639819Y-85869285D01*
X178639819Y-85869285D02*
X178639819Y-85631190D01*
X178639819Y-85631190D02*
X178687438Y-85488333D01*
X178687438Y-85488333D02*
X178782676Y-85393095D01*
X178782676Y-85393095D02*
X178877914Y-85345476D01*
X178877914Y-85345476D02*
X179068390Y-85297857D01*
X179068390Y-85297857D02*
X179211247Y-85297857D01*
X179211247Y-85297857D02*
X179401723Y-85345476D01*
X179401723Y-85345476D02*
X179496961Y-85393095D01*
X179496961Y-85393095D02*
X179592200Y-85488333D01*
X179592200Y-85488333D02*
X179639819Y-85631190D01*
X179639819Y-85631190D02*
X179639819Y-85869285D01*
X179639819Y-84345476D02*
X179639819Y-84916904D01*
X179639819Y-84631190D02*
X178639819Y-84631190D01*
X178639819Y-84631190D02*
X178782676Y-84726428D01*
X178782676Y-84726428D02*
X178877914Y-84821666D01*
X178877914Y-84821666D02*
X178925533Y-84916904D01*
X178639819Y-83726428D02*
X178639819Y-83631190D01*
X178639819Y-83631190D02*
X178687438Y-83535952D01*
X178687438Y-83535952D02*
X178735057Y-83488333D01*
X178735057Y-83488333D02*
X178830295Y-83440714D01*
X178830295Y-83440714D02*
X179020771Y-83393095D01*
X179020771Y-83393095D02*
X179258866Y-83393095D01*
X179258866Y-83393095D02*
X179449342Y-83440714D01*
X179449342Y-83440714D02*
X179544580Y-83488333D01*
X179544580Y-83488333D02*
X179592200Y-83535952D01*
X179592200Y-83535952D02*
X179639819Y-83631190D01*
X179639819Y-83631190D02*
X179639819Y-83726428D01*
X179639819Y-83726428D02*
X179592200Y-83821666D01*
X179592200Y-83821666D02*
X179544580Y-83869285D01*
X179544580Y-83869285D02*
X179449342Y-83916904D01*
X179449342Y-83916904D02*
X179258866Y-83964523D01*
X179258866Y-83964523D02*
X179020771Y-83964523D01*
X179020771Y-83964523D02*
X178830295Y-83916904D01*
X178830295Y-83916904D02*
X178735057Y-83869285D01*
X178735057Y-83869285D02*
X178687438Y-83821666D01*
X178687438Y-83821666D02*
X178639819Y-83726428D01*
X179623569Y-88844404D02*
X178623569Y-88844404D01*
X179623569Y-88272976D02*
X179052140Y-88701547D01*
X178623569Y-88272976D02*
X179194997Y-88844404D01*
X150584226Y-113976950D02*
X150727083Y-114024569D01*
X150727083Y-114024569D02*
X150965178Y-114024569D01*
X150965178Y-114024569D02*
X151060416Y-113976950D01*
X151060416Y-113976950D02*
X151108035Y-113929330D01*
X151108035Y-113929330D02*
X151155654Y-113834092D01*
X151155654Y-113834092D02*
X151155654Y-113738854D01*
X151155654Y-113738854D02*
X151108035Y-113643616D01*
X151108035Y-113643616D02*
X151060416Y-113595997D01*
X151060416Y-113595997D02*
X150965178Y-113548378D01*
X150965178Y-113548378D02*
X150774702Y-113500759D01*
X150774702Y-113500759D02*
X150679464Y-113453140D01*
X150679464Y-113453140D02*
X150631845Y-113405521D01*
X150631845Y-113405521D02*
X150584226Y-113310283D01*
X150584226Y-113310283D02*
X150584226Y-113215045D01*
X150584226Y-113215045D02*
X150631845Y-113119807D01*
X150631845Y-113119807D02*
X150679464Y-113072188D01*
X150679464Y-113072188D02*
X150774702Y-113024569D01*
X150774702Y-113024569D02*
X151012797Y-113024569D01*
X151012797Y-113024569D02*
X151155654Y-113072188D01*
X151488988Y-113024569D02*
X151727083Y-114024569D01*
X151727083Y-114024569D02*
X151917559Y-113310283D01*
X151917559Y-113310283D02*
X152108035Y-114024569D01*
X152108035Y-114024569D02*
X152346131Y-113024569D01*
X153250892Y-114024569D02*
X152679464Y-114024569D01*
X152965178Y-114024569D02*
X152965178Y-113024569D01*
X152965178Y-113024569D02*
X152869940Y-113167426D01*
X152869940Y-113167426D02*
X152774702Y-113262664D01*
X152774702Y-113262664D02*
X152679464Y-113310283D01*
X154155654Y-113024569D02*
X153679464Y-113024569D01*
X153679464Y-113024569D02*
X153631845Y-113500759D01*
X153631845Y-113500759D02*
X153679464Y-113453140D01*
X153679464Y-113453140D02*
X153774702Y-113405521D01*
X153774702Y-113405521D02*
X154012797Y-113405521D01*
X154012797Y-113405521D02*
X154108035Y-113453140D01*
X154108035Y-113453140D02*
X154155654Y-113500759D01*
X154155654Y-113500759D02*
X154203273Y-113595997D01*
X154203273Y-113595997D02*
X154203273Y-113834092D01*
X154203273Y-113834092D02*
X154155654Y-113929330D01*
X154155654Y-113929330D02*
X154108035Y-113976950D01*
X154108035Y-113976950D02*
X154012797Y-114024569D01*
X154012797Y-114024569D02*
X153774702Y-114024569D01*
X153774702Y-114024569D02*
X153679464Y-113976950D01*
X153679464Y-113976950D02*
X153631845Y-113929330D01*
X169634226Y-94926950D02*
X169777083Y-94974569D01*
X169777083Y-94974569D02*
X170015178Y-94974569D01*
X170015178Y-94974569D02*
X170110416Y-94926950D01*
X170110416Y-94926950D02*
X170158035Y-94879330D01*
X170158035Y-94879330D02*
X170205654Y-94784092D01*
X170205654Y-94784092D02*
X170205654Y-94688854D01*
X170205654Y-94688854D02*
X170158035Y-94593616D01*
X170158035Y-94593616D02*
X170110416Y-94545997D01*
X170110416Y-94545997D02*
X170015178Y-94498378D01*
X170015178Y-94498378D02*
X169824702Y-94450759D01*
X169824702Y-94450759D02*
X169729464Y-94403140D01*
X169729464Y-94403140D02*
X169681845Y-94355521D01*
X169681845Y-94355521D02*
X169634226Y-94260283D01*
X169634226Y-94260283D02*
X169634226Y-94165045D01*
X169634226Y-94165045D02*
X169681845Y-94069807D01*
X169681845Y-94069807D02*
X169729464Y-94022188D01*
X169729464Y-94022188D02*
X169824702Y-93974569D01*
X169824702Y-93974569D02*
X170062797Y-93974569D01*
X170062797Y-93974569D02*
X170205654Y-94022188D01*
X170538988Y-93974569D02*
X170777083Y-94974569D01*
X170777083Y-94974569D02*
X170967559Y-94260283D01*
X170967559Y-94260283D02*
X171158035Y-94974569D01*
X171158035Y-94974569D02*
X171396131Y-93974569D01*
X172300892Y-94974569D02*
X171729464Y-94974569D01*
X172015178Y-94974569D02*
X172015178Y-93974569D01*
X172015178Y-93974569D02*
X171919940Y-94117426D01*
X171919940Y-94117426D02*
X171824702Y-94212664D01*
X171824702Y-94212664D02*
X171729464Y-94260283D01*
X172681845Y-94069807D02*
X172729464Y-94022188D01*
X172729464Y-94022188D02*
X172824702Y-93974569D01*
X172824702Y-93974569D02*
X173062797Y-93974569D01*
X173062797Y-93974569D02*
X173158035Y-94022188D01*
X173158035Y-94022188D02*
X173205654Y-94069807D01*
X173205654Y-94069807D02*
X173253273Y-94165045D01*
X173253273Y-94165045D02*
X173253273Y-94260283D01*
X173253273Y-94260283D02*
X173205654Y-94403140D01*
X173205654Y-94403140D02*
X172634226Y-94974569D01*
X172634226Y-94974569D02*
X173253273Y-94974569D01*
X151060417Y-75876950D02*
X151203274Y-75924569D01*
X151203274Y-75924569D02*
X151441369Y-75924569D01*
X151441369Y-75924569D02*
X151536607Y-75876950D01*
X151536607Y-75876950D02*
X151584226Y-75829330D01*
X151584226Y-75829330D02*
X151631845Y-75734092D01*
X151631845Y-75734092D02*
X151631845Y-75638854D01*
X151631845Y-75638854D02*
X151584226Y-75543616D01*
X151584226Y-75543616D02*
X151536607Y-75495997D01*
X151536607Y-75495997D02*
X151441369Y-75448378D01*
X151441369Y-75448378D02*
X151250893Y-75400759D01*
X151250893Y-75400759D02*
X151155655Y-75353140D01*
X151155655Y-75353140D02*
X151108036Y-75305521D01*
X151108036Y-75305521D02*
X151060417Y-75210283D01*
X151060417Y-75210283D02*
X151060417Y-75115045D01*
X151060417Y-75115045D02*
X151108036Y-75019807D01*
X151108036Y-75019807D02*
X151155655Y-74972188D01*
X151155655Y-74972188D02*
X151250893Y-74924569D01*
X151250893Y-74924569D02*
X151488988Y-74924569D01*
X151488988Y-74924569D02*
X151631845Y-74972188D01*
X151965179Y-74924569D02*
X152203274Y-75924569D01*
X152203274Y-75924569D02*
X152393750Y-75210283D01*
X152393750Y-75210283D02*
X152584226Y-75924569D01*
X152584226Y-75924569D02*
X152822322Y-74924569D01*
X153108036Y-74924569D02*
X153774702Y-74924569D01*
X153774702Y-74924569D02*
X153346131Y-75924569D01*
X131534226Y-113976950D02*
X131677083Y-114024569D01*
X131677083Y-114024569D02*
X131915178Y-114024569D01*
X131915178Y-114024569D02*
X132010416Y-113976950D01*
X132010416Y-113976950D02*
X132058035Y-113929330D01*
X132058035Y-113929330D02*
X132105654Y-113834092D01*
X132105654Y-113834092D02*
X132105654Y-113738854D01*
X132105654Y-113738854D02*
X132058035Y-113643616D01*
X132058035Y-113643616D02*
X132010416Y-113595997D01*
X132010416Y-113595997D02*
X131915178Y-113548378D01*
X131915178Y-113548378D02*
X131724702Y-113500759D01*
X131724702Y-113500759D02*
X131629464Y-113453140D01*
X131629464Y-113453140D02*
X131581845Y-113405521D01*
X131581845Y-113405521D02*
X131534226Y-113310283D01*
X131534226Y-113310283D02*
X131534226Y-113215045D01*
X131534226Y-113215045D02*
X131581845Y-113119807D01*
X131581845Y-113119807D02*
X131629464Y-113072188D01*
X131629464Y-113072188D02*
X131724702Y-113024569D01*
X131724702Y-113024569D02*
X131962797Y-113024569D01*
X131962797Y-113024569D02*
X132105654Y-113072188D01*
X132438988Y-113024569D02*
X132677083Y-114024569D01*
X132677083Y-114024569D02*
X132867559Y-113310283D01*
X132867559Y-113310283D02*
X133058035Y-114024569D01*
X133058035Y-114024569D02*
X133296131Y-113024569D01*
X134200892Y-114024569D02*
X133629464Y-114024569D01*
X133915178Y-114024569D02*
X133915178Y-113024569D01*
X133915178Y-113024569D02*
X133819940Y-113167426D01*
X133819940Y-113167426D02*
X133724702Y-113262664D01*
X133724702Y-113262664D02*
X133629464Y-113310283D01*
X135058035Y-113357902D02*
X135058035Y-114024569D01*
X134819940Y-112976950D02*
X134581845Y-113691235D01*
X134581845Y-113691235D02*
X135200892Y-113691235D01*
X112960417Y-56826950D02*
X113103274Y-56874569D01*
X113103274Y-56874569D02*
X113341369Y-56874569D01*
X113341369Y-56874569D02*
X113436607Y-56826950D01*
X113436607Y-56826950D02*
X113484226Y-56779330D01*
X113484226Y-56779330D02*
X113531845Y-56684092D01*
X113531845Y-56684092D02*
X113531845Y-56588854D01*
X113531845Y-56588854D02*
X113484226Y-56493616D01*
X113484226Y-56493616D02*
X113436607Y-56445997D01*
X113436607Y-56445997D02*
X113341369Y-56398378D01*
X113341369Y-56398378D02*
X113150893Y-56350759D01*
X113150893Y-56350759D02*
X113055655Y-56303140D01*
X113055655Y-56303140D02*
X113008036Y-56255521D01*
X113008036Y-56255521D02*
X112960417Y-56160283D01*
X112960417Y-56160283D02*
X112960417Y-56065045D01*
X112960417Y-56065045D02*
X113008036Y-55969807D01*
X113008036Y-55969807D02*
X113055655Y-55922188D01*
X113055655Y-55922188D02*
X113150893Y-55874569D01*
X113150893Y-55874569D02*
X113388988Y-55874569D01*
X113388988Y-55874569D02*
X113531845Y-55922188D01*
X113865179Y-55874569D02*
X114103274Y-56874569D01*
X114103274Y-56874569D02*
X114293750Y-56160283D01*
X114293750Y-56160283D02*
X114484226Y-56874569D01*
X114484226Y-56874569D02*
X114722322Y-55874569D01*
X115627083Y-56874569D02*
X115055655Y-56874569D01*
X115341369Y-56874569D02*
X115341369Y-55874569D01*
X115341369Y-55874569D02*
X115246131Y-56017426D01*
X115246131Y-56017426D02*
X115150893Y-56112664D01*
X115150893Y-56112664D02*
X115055655Y-56160283D01*
X112960417Y-75876950D02*
X113103274Y-75924569D01*
X113103274Y-75924569D02*
X113341369Y-75924569D01*
X113341369Y-75924569D02*
X113436607Y-75876950D01*
X113436607Y-75876950D02*
X113484226Y-75829330D01*
X113484226Y-75829330D02*
X113531845Y-75734092D01*
X113531845Y-75734092D02*
X113531845Y-75638854D01*
X113531845Y-75638854D02*
X113484226Y-75543616D01*
X113484226Y-75543616D02*
X113436607Y-75495997D01*
X113436607Y-75495997D02*
X113341369Y-75448378D01*
X113341369Y-75448378D02*
X113150893Y-75400759D01*
X113150893Y-75400759D02*
X113055655Y-75353140D01*
X113055655Y-75353140D02*
X113008036Y-75305521D01*
X113008036Y-75305521D02*
X112960417Y-75210283D01*
X112960417Y-75210283D02*
X112960417Y-75115045D01*
X112960417Y-75115045D02*
X113008036Y-75019807D01*
X113008036Y-75019807D02*
X113055655Y-74972188D01*
X113055655Y-74972188D02*
X113150893Y-74924569D01*
X113150893Y-74924569D02*
X113388988Y-74924569D01*
X113388988Y-74924569D02*
X113531845Y-74972188D01*
X113865179Y-74924569D02*
X114103274Y-75924569D01*
X114103274Y-75924569D02*
X114293750Y-75210283D01*
X114293750Y-75210283D02*
X114484226Y-75924569D01*
X114484226Y-75924569D02*
X114722322Y-74924569D01*
X115579464Y-74924569D02*
X115103274Y-74924569D01*
X115103274Y-74924569D02*
X115055655Y-75400759D01*
X115055655Y-75400759D02*
X115103274Y-75353140D01*
X115103274Y-75353140D02*
X115198512Y-75305521D01*
X115198512Y-75305521D02*
X115436607Y-75305521D01*
X115436607Y-75305521D02*
X115531845Y-75353140D01*
X115531845Y-75353140D02*
X115579464Y-75400759D01*
X115579464Y-75400759D02*
X115627083Y-75495997D01*
X115627083Y-75495997D02*
X115627083Y-75734092D01*
X115627083Y-75734092D02*
X115579464Y-75829330D01*
X115579464Y-75829330D02*
X115531845Y-75876950D01*
X115531845Y-75876950D02*
X115436607Y-75924569D01*
X115436607Y-75924569D02*
X115198512Y-75924569D01*
X115198512Y-75924569D02*
X115103274Y-75876950D01*
X115103274Y-75876950D02*
X115055655Y-75829330D01*
X122469819Y-104799285D02*
X121469819Y-104799285D01*
X121469819Y-104799285D02*
X121469819Y-104561190D01*
X121469819Y-104561190D02*
X121517438Y-104418333D01*
X121517438Y-104418333D02*
X121612676Y-104323095D01*
X121612676Y-104323095D02*
X121707914Y-104275476D01*
X121707914Y-104275476D02*
X121898390Y-104227857D01*
X121898390Y-104227857D02*
X122041247Y-104227857D01*
X122041247Y-104227857D02*
X122231723Y-104275476D01*
X122231723Y-104275476D02*
X122326961Y-104323095D01*
X122326961Y-104323095D02*
X122422200Y-104418333D01*
X122422200Y-104418333D02*
X122469819Y-104561190D01*
X122469819Y-104561190D02*
X122469819Y-104799285D01*
X122469819Y-103275476D02*
X122469819Y-103846904D01*
X122469819Y-103561190D02*
X121469819Y-103561190D01*
X121469819Y-103561190D02*
X121612676Y-103656428D01*
X121612676Y-103656428D02*
X121707914Y-103751666D01*
X121707914Y-103751666D02*
X121755533Y-103846904D01*
X122469819Y-102323095D02*
X122469819Y-102894523D01*
X122469819Y-102608809D02*
X121469819Y-102608809D01*
X121469819Y-102608809D02*
X121612676Y-102704047D01*
X121612676Y-102704047D02*
X121707914Y-102799285D01*
X121707914Y-102799285D02*
X121755533Y-102894523D01*
X122473569Y-107894404D02*
X121473569Y-107894404D01*
X122473569Y-107322976D02*
X121902140Y-107751547D01*
X121473569Y-107322976D02*
X122044997Y-107894404D01*
X170110417Y-56826950D02*
X170253274Y-56874569D01*
X170253274Y-56874569D02*
X170491369Y-56874569D01*
X170491369Y-56874569D02*
X170586607Y-56826950D01*
X170586607Y-56826950D02*
X170634226Y-56779330D01*
X170634226Y-56779330D02*
X170681845Y-56684092D01*
X170681845Y-56684092D02*
X170681845Y-56588854D01*
X170681845Y-56588854D02*
X170634226Y-56493616D01*
X170634226Y-56493616D02*
X170586607Y-56445997D01*
X170586607Y-56445997D02*
X170491369Y-56398378D01*
X170491369Y-56398378D02*
X170300893Y-56350759D01*
X170300893Y-56350759D02*
X170205655Y-56303140D01*
X170205655Y-56303140D02*
X170158036Y-56255521D01*
X170158036Y-56255521D02*
X170110417Y-56160283D01*
X170110417Y-56160283D02*
X170110417Y-56065045D01*
X170110417Y-56065045D02*
X170158036Y-55969807D01*
X170158036Y-55969807D02*
X170205655Y-55922188D01*
X170205655Y-55922188D02*
X170300893Y-55874569D01*
X170300893Y-55874569D02*
X170538988Y-55874569D01*
X170538988Y-55874569D02*
X170681845Y-55922188D01*
X171015179Y-55874569D02*
X171253274Y-56874569D01*
X171253274Y-56874569D02*
X171443750Y-56160283D01*
X171443750Y-56160283D02*
X171634226Y-56874569D01*
X171634226Y-56874569D02*
X171872322Y-55874569D01*
X172681845Y-56207902D02*
X172681845Y-56874569D01*
X172443750Y-55826950D02*
X172205655Y-56541235D01*
X172205655Y-56541235D02*
X172824702Y-56541235D01*
X160569819Y-104839285D02*
X159569819Y-104839285D01*
X159569819Y-104839285D02*
X159569819Y-104601190D01*
X159569819Y-104601190D02*
X159617438Y-104458333D01*
X159617438Y-104458333D02*
X159712676Y-104363095D01*
X159712676Y-104363095D02*
X159807914Y-104315476D01*
X159807914Y-104315476D02*
X159998390Y-104267857D01*
X159998390Y-104267857D02*
X160141247Y-104267857D01*
X160141247Y-104267857D02*
X160331723Y-104315476D01*
X160331723Y-104315476D02*
X160426961Y-104363095D01*
X160426961Y-104363095D02*
X160522200Y-104458333D01*
X160522200Y-104458333D02*
X160569819Y-104601190D01*
X160569819Y-104601190D02*
X160569819Y-104839285D01*
X160569819Y-103315476D02*
X160569819Y-103886904D01*
X160569819Y-103601190D02*
X159569819Y-103601190D01*
X159569819Y-103601190D02*
X159712676Y-103696428D01*
X159712676Y-103696428D02*
X159807914Y-103791666D01*
X159807914Y-103791666D02*
X159855533Y-103886904D01*
X159569819Y-102982142D02*
X159569819Y-102363095D01*
X159569819Y-102363095D02*
X159950771Y-102696428D01*
X159950771Y-102696428D02*
X159950771Y-102553571D01*
X159950771Y-102553571D02*
X159998390Y-102458333D01*
X159998390Y-102458333D02*
X160046009Y-102410714D01*
X160046009Y-102410714D02*
X160141247Y-102363095D01*
X160141247Y-102363095D02*
X160379342Y-102363095D01*
X160379342Y-102363095D02*
X160474580Y-102410714D01*
X160474580Y-102410714D02*
X160522200Y-102458333D01*
X160522200Y-102458333D02*
X160569819Y-102553571D01*
X160569819Y-102553571D02*
X160569819Y-102839285D01*
X160569819Y-102839285D02*
X160522200Y-102934523D01*
X160522200Y-102934523D02*
X160474580Y-102982142D01*
X160573569Y-107894404D02*
X159573569Y-107894404D01*
X160573569Y-107322976D02*
X160002140Y-107751547D01*
X159573569Y-107322976D02*
X160144997Y-107894404D01*
X112484226Y-113976950D02*
X112627083Y-114024569D01*
X112627083Y-114024569D02*
X112865178Y-114024569D01*
X112865178Y-114024569D02*
X112960416Y-113976950D01*
X112960416Y-113976950D02*
X113008035Y-113929330D01*
X113008035Y-113929330D02*
X113055654Y-113834092D01*
X113055654Y-113834092D02*
X113055654Y-113738854D01*
X113055654Y-113738854D02*
X113008035Y-113643616D01*
X113008035Y-113643616D02*
X112960416Y-113595997D01*
X112960416Y-113595997D02*
X112865178Y-113548378D01*
X112865178Y-113548378D02*
X112674702Y-113500759D01*
X112674702Y-113500759D02*
X112579464Y-113453140D01*
X112579464Y-113453140D02*
X112531845Y-113405521D01*
X112531845Y-113405521D02*
X112484226Y-113310283D01*
X112484226Y-113310283D02*
X112484226Y-113215045D01*
X112484226Y-113215045D02*
X112531845Y-113119807D01*
X112531845Y-113119807D02*
X112579464Y-113072188D01*
X112579464Y-113072188D02*
X112674702Y-113024569D01*
X112674702Y-113024569D02*
X112912797Y-113024569D01*
X112912797Y-113024569D02*
X113055654Y-113072188D01*
X113388988Y-113024569D02*
X113627083Y-114024569D01*
X113627083Y-114024569D02*
X113817559Y-113310283D01*
X113817559Y-113310283D02*
X114008035Y-114024569D01*
X114008035Y-114024569D02*
X114246131Y-113024569D01*
X115150892Y-114024569D02*
X114579464Y-114024569D01*
X114865178Y-114024569D02*
X114865178Y-113024569D01*
X114865178Y-113024569D02*
X114769940Y-113167426D01*
X114769940Y-113167426D02*
X114674702Y-113262664D01*
X114674702Y-113262664D02*
X114579464Y-113310283D01*
X115484226Y-113024569D02*
X116103273Y-113024569D01*
X116103273Y-113024569D02*
X115769940Y-113405521D01*
X115769940Y-113405521D02*
X115912797Y-113405521D01*
X115912797Y-113405521D02*
X116008035Y-113453140D01*
X116008035Y-113453140D02*
X116055654Y-113500759D01*
X116055654Y-113500759D02*
X116103273Y-113595997D01*
X116103273Y-113595997D02*
X116103273Y-113834092D01*
X116103273Y-113834092D02*
X116055654Y-113929330D01*
X116055654Y-113929330D02*
X116008035Y-113976950D01*
X116008035Y-113976950D02*
X115912797Y-114024569D01*
X115912797Y-114024569D02*
X115627083Y-114024569D01*
X115627083Y-114024569D02*
X115531845Y-113976950D01*
X115531845Y-113976950D02*
X115484226Y-113929330D01*
D11*
X104286073Y-45929464D02*
X105014644Y-45929464D01*
X105014644Y-45929464D02*
X105100358Y-45886607D01*
X105100358Y-45886607D02*
X105143216Y-45843750D01*
X105143216Y-45843750D02*
X105186073Y-45758035D01*
X105186073Y-45758035D02*
X105186073Y-45586607D01*
X105186073Y-45586607D02*
X105143216Y-45500892D01*
X105143216Y-45500892D02*
X105100358Y-45458035D01*
X105100358Y-45458035D02*
X105014644Y-45415178D01*
X105014644Y-45415178D02*
X104286073Y-45415178D01*
X104371787Y-45029464D02*
X104328930Y-44986607D01*
X104328930Y-44986607D02*
X104286073Y-44900893D01*
X104286073Y-44900893D02*
X104286073Y-44686607D01*
X104286073Y-44686607D02*
X104328930Y-44600893D01*
X104328930Y-44600893D02*
X104371787Y-44558035D01*
X104371787Y-44558035D02*
X104457501Y-44515178D01*
X104457501Y-44515178D02*
X104543216Y-44515178D01*
X104543216Y-44515178D02*
X104671787Y-44558035D01*
X104671787Y-44558035D02*
X105186073Y-45072321D01*
X105186073Y-45072321D02*
X105186073Y-44515178D01*
D12*
%TO.C,SW6*%
X126358750Y-76358750D02*
X140328750Y-76358750D01*
X126358750Y-90328750D02*
X126358750Y-76358750D01*
X140328750Y-76358750D02*
X140328750Y-90328750D01*
X140328750Y-90328750D02*
X126358750Y-90328750D01*
%TO.C,D9*%
X160798750Y-86052500D02*
X163038750Y-86052500D01*
X160798750Y-86172500D02*
X163038750Y-86172500D01*
X160798750Y-86292500D02*
X163038750Y-86292500D01*
X161918750Y-82002500D02*
X161918750Y-82652500D01*
X161918750Y-87542500D02*
X161918750Y-86892500D01*
X160798750Y-86892500D02*
X163038750Y-86892500D01*
X163038750Y-82652500D01*
X160798750Y-82652500D01*
X160798750Y-86892500D01*
%TO.C,D18*%
X179848750Y-124152500D02*
X182088750Y-124152500D01*
X179848750Y-124272500D02*
X182088750Y-124272500D01*
X179848750Y-124392500D02*
X182088750Y-124392500D01*
X180968750Y-120102500D02*
X180968750Y-120752500D01*
X180968750Y-125642500D02*
X180968750Y-124992500D01*
X179848750Y-124992500D02*
X182088750Y-124992500D01*
X182088750Y-120752500D01*
X179848750Y-120752500D01*
X179848750Y-124992500D01*
%TO.C,D17*%
X160798750Y-124152500D02*
X163038750Y-124152500D01*
X160798750Y-124272500D02*
X163038750Y-124272500D01*
X160798750Y-124392500D02*
X163038750Y-124392500D01*
X161918750Y-120102500D02*
X161918750Y-120752500D01*
X161918750Y-125642500D02*
X161918750Y-124992500D01*
X160798750Y-124992500D02*
X163038750Y-124992500D01*
X163038750Y-120752500D01*
X160798750Y-120752500D01*
X160798750Y-124992500D01*
%TO.C,D16*%
X141748750Y-124152500D02*
X143988750Y-124152500D01*
X141748750Y-124272500D02*
X143988750Y-124272500D01*
X141748750Y-124392500D02*
X143988750Y-124392500D01*
X142868750Y-120102500D02*
X142868750Y-120752500D01*
X142868750Y-125642500D02*
X142868750Y-124992500D01*
X141748750Y-124992500D02*
X143988750Y-124992500D01*
X143988750Y-120752500D01*
X141748750Y-120752500D01*
X141748750Y-124992500D01*
%TO.C,SW2*%
X126358750Y-57308750D02*
X140328750Y-57308750D01*
X126358750Y-71278750D02*
X126358750Y-57308750D01*
X140328750Y-57308750D02*
X140328750Y-71278750D01*
X140328750Y-71278750D02*
X126358750Y-71278750D01*
%TO.C,D15*%
X122698750Y-124152500D02*
X124938750Y-124152500D01*
X122698750Y-124272500D02*
X124938750Y-124272500D01*
X122698750Y-124392500D02*
X124938750Y-124392500D01*
X123818750Y-120102500D02*
X123818750Y-120752500D01*
X123818750Y-125642500D02*
X123818750Y-124992500D01*
X122698750Y-124992500D02*
X124938750Y-124992500D01*
X124938750Y-120752500D01*
X122698750Y-120752500D01*
X122698750Y-124992500D01*
%TO.C,D4*%
X141748750Y-67002500D02*
X143988750Y-67002500D01*
X141748750Y-67122500D02*
X143988750Y-67122500D01*
X141748750Y-67242500D02*
X143988750Y-67242500D01*
X142868750Y-62952500D02*
X142868750Y-63602500D01*
X142868750Y-68492500D02*
X142868750Y-67842500D01*
X141748750Y-67842500D02*
X143988750Y-67842500D01*
X143988750Y-63602500D01*
X141748750Y-63602500D01*
X141748750Y-67842500D01*
%TO.C,SW10*%
X126358750Y-95408750D02*
X140328750Y-95408750D01*
X126358750Y-109378750D02*
X126358750Y-95408750D01*
X140328750Y-95408750D02*
X140328750Y-109378750D01*
X140328750Y-109378750D02*
X126358750Y-109378750D01*
%TO.C,SW16*%
X164458750Y-114458750D02*
X178428750Y-114458750D01*
X164458750Y-128428750D02*
X164458750Y-114458750D01*
X178428750Y-114458750D02*
X178428750Y-128428750D01*
X178428750Y-128428750D02*
X164458750Y-128428750D01*
%TO.C,SW11*%
X145408750Y-95408750D02*
X159378750Y-95408750D01*
X145408750Y-109378750D02*
X145408750Y-95408750D01*
X159378750Y-95408750D02*
X159378750Y-109378750D01*
X159378750Y-109378750D02*
X145408750Y-109378750D01*
%TO.C,D12*%
X141748750Y-105102500D02*
X143988750Y-105102500D01*
X141748750Y-105222500D02*
X143988750Y-105222500D01*
X141748750Y-105342500D02*
X143988750Y-105342500D01*
X142868750Y-101052500D02*
X142868750Y-101702500D01*
X142868750Y-106592500D02*
X142868750Y-105942500D01*
X141748750Y-105942500D02*
X143988750Y-105942500D01*
X143988750Y-101702500D01*
X141748750Y-101702500D01*
X141748750Y-105942500D01*
%TO.C,D8*%
X141748750Y-86052500D02*
X143988750Y-86052500D01*
X141748750Y-86172500D02*
X143988750Y-86172500D01*
X141748750Y-86292500D02*
X143988750Y-86292500D01*
X142868750Y-82002500D02*
X142868750Y-82652500D01*
X142868750Y-87542500D02*
X142868750Y-86892500D01*
X141748750Y-86892500D02*
X143988750Y-86892500D01*
X143988750Y-82652500D01*
X141748750Y-82652500D01*
X141748750Y-86892500D01*
%TO.C,D3*%
X122698750Y-67002500D02*
X124938750Y-67002500D01*
X122698750Y-67122500D02*
X124938750Y-67122500D01*
X122698750Y-67242500D02*
X124938750Y-67242500D01*
X123818750Y-62952500D02*
X123818750Y-63602500D01*
X123818750Y-68492500D02*
X123818750Y-67842500D01*
X122698750Y-67842500D02*
X124938750Y-67842500D01*
X124938750Y-63602500D01*
X122698750Y-63602500D01*
X122698750Y-67842500D01*
%TO.C,D5*%
X160798750Y-67002500D02*
X163038750Y-67002500D01*
X160798750Y-67122500D02*
X163038750Y-67122500D01*
X160798750Y-67242500D02*
X163038750Y-67242500D01*
X161918750Y-62952500D02*
X161918750Y-63602500D01*
X161918750Y-68492500D02*
X161918750Y-67842500D01*
X160798750Y-67842500D02*
X163038750Y-67842500D01*
X163038750Y-63602500D01*
X160798750Y-63602500D01*
X160798750Y-67842500D01*
%TO.C,D7*%
X122698750Y-86052500D02*
X124938750Y-86052500D01*
X122698750Y-86172500D02*
X124938750Y-86172500D01*
X122698750Y-86292500D02*
X124938750Y-86292500D01*
X123818750Y-82002500D02*
X123818750Y-82652500D01*
X123818750Y-87542500D02*
X123818750Y-86892500D01*
X122698750Y-86892500D02*
X124938750Y-86892500D01*
X124938750Y-82652500D01*
X122698750Y-82652500D01*
X122698750Y-86892500D01*
%TO.C,D6*%
X179848750Y-67002500D02*
X182088750Y-67002500D01*
X179848750Y-67122500D02*
X182088750Y-67122500D01*
X179848750Y-67242500D02*
X182088750Y-67242500D01*
X180968750Y-62952500D02*
X180968750Y-63602500D01*
X180968750Y-68492500D02*
X180968750Y-67842500D01*
X179848750Y-67842500D02*
X182088750Y-67842500D01*
X182088750Y-63602500D01*
X179848750Y-63602500D01*
X179848750Y-67842500D01*
%TO.C,D14*%
X179848750Y-105102500D02*
X182088750Y-105102500D01*
X179848750Y-105222500D02*
X182088750Y-105222500D01*
X179848750Y-105342500D02*
X182088750Y-105342500D01*
X180968750Y-101052500D02*
X180968750Y-101702500D01*
X180968750Y-106592500D02*
X180968750Y-105942500D01*
X179848750Y-105942500D02*
X182088750Y-105942500D01*
X182088750Y-101702500D01*
X179848750Y-101702500D01*
X179848750Y-105942500D01*
%TO.C,SW8*%
X164458750Y-76358750D02*
X178428750Y-76358750D01*
X164458750Y-90328750D02*
X164458750Y-76358750D01*
X178428750Y-76358750D02*
X178428750Y-90328750D01*
X178428750Y-90328750D02*
X164458750Y-90328750D01*
%TO.C,SW9*%
X107308750Y-95408750D02*
X121278750Y-95408750D01*
X107308750Y-109378750D02*
X107308750Y-95408750D01*
X121278750Y-95408750D02*
X121278750Y-109378750D01*
X121278750Y-109378750D02*
X107308750Y-109378750D01*
%TO.C,SW3*%
X145408750Y-57308750D02*
X159378750Y-57308750D01*
X145408750Y-71278750D02*
X145408750Y-57308750D01*
X159378750Y-57308750D02*
X159378750Y-71278750D01*
X159378750Y-71278750D02*
X145408750Y-71278750D01*
%TO.C,D10*%
X179848750Y-86052500D02*
X182088750Y-86052500D01*
X179848750Y-86172500D02*
X182088750Y-86172500D01*
X179848750Y-86292500D02*
X182088750Y-86292500D01*
X180968750Y-82002500D02*
X180968750Y-82652500D01*
X180968750Y-87542500D02*
X180968750Y-86892500D01*
X179848750Y-86892500D02*
X182088750Y-86892500D01*
X182088750Y-82652500D01*
X179848750Y-82652500D01*
X179848750Y-86892500D01*
%TO.C,SW15*%
X145408750Y-114458750D02*
X159378750Y-114458750D01*
X145408750Y-128428750D02*
X145408750Y-114458750D01*
X159378750Y-114458750D02*
X159378750Y-128428750D01*
X159378750Y-128428750D02*
X145408750Y-128428750D01*
%TO.C,SW12*%
X164458750Y-95408750D02*
X178428750Y-95408750D01*
X164458750Y-109378750D02*
X164458750Y-95408750D01*
X178428750Y-95408750D02*
X178428750Y-109378750D01*
X178428750Y-109378750D02*
X164458750Y-109378750D01*
%TO.C,SW7*%
X145408750Y-76358750D02*
X159378750Y-76358750D01*
X145408750Y-90328750D02*
X145408750Y-76358750D01*
X159378750Y-76358750D02*
X159378750Y-90328750D01*
X159378750Y-90328750D02*
X145408750Y-90328750D01*
%TO.C,SW14*%
X126358750Y-114458750D02*
X140328750Y-114458750D01*
X126358750Y-128428750D02*
X126358750Y-114458750D01*
X140328750Y-114458750D02*
X140328750Y-128428750D01*
X140328750Y-128428750D02*
X126358750Y-128428750D01*
%TO.C,SW1*%
X107308750Y-57308750D02*
X121278750Y-57308750D01*
X107308750Y-71278750D02*
X107308750Y-57308750D01*
X121278750Y-57308750D02*
X121278750Y-71278750D01*
X121278750Y-71278750D02*
X107308750Y-71278750D01*
%TO.C,SW5*%
X107308750Y-76358750D02*
X121278750Y-76358750D01*
X107308750Y-90328750D02*
X107308750Y-76358750D01*
X121278750Y-76358750D02*
X121278750Y-90328750D01*
X121278750Y-90328750D02*
X107308750Y-90328750D01*
%TO.C,D11*%
X122698750Y-105102500D02*
X124938750Y-105102500D01*
X122698750Y-105222500D02*
X124938750Y-105222500D01*
X122698750Y-105342500D02*
X124938750Y-105342500D01*
X123818750Y-101052500D02*
X123818750Y-101702500D01*
X123818750Y-106592500D02*
X123818750Y-105942500D01*
X122698750Y-105942500D02*
X124938750Y-105942500D01*
X124938750Y-101702500D01*
X122698750Y-101702500D01*
X122698750Y-105942500D01*
%TO.C,SW4*%
X164458750Y-57308750D02*
X178428750Y-57308750D01*
X164458750Y-71278750D02*
X164458750Y-57308750D01*
X178428750Y-57308750D02*
X178428750Y-71278750D01*
X178428750Y-71278750D02*
X164458750Y-71278750D01*
%TO.C,D13*%
X160798750Y-105102500D02*
X163038750Y-105102500D01*
X160798750Y-105222500D02*
X163038750Y-105222500D01*
X160798750Y-105342500D02*
X163038750Y-105342500D01*
X161918750Y-101052500D02*
X161918750Y-101702500D01*
X161918750Y-106592500D02*
X161918750Y-105942500D01*
X160798750Y-105942500D02*
X163038750Y-105942500D01*
X163038750Y-101702500D01*
X160798750Y-101702500D01*
X160798750Y-105942500D01*
%TO.C,SW13*%
X107308750Y-114458750D02*
X121278750Y-114458750D01*
X107308750Y-128428750D02*
X107308750Y-114458750D01*
X121278750Y-114458750D02*
X121278750Y-128428750D01*
X121278750Y-128428750D02*
X107308750Y-128428750D01*
D13*
%TO.C,U2*%
X91775091Y-49711272D02*
X91775091Y-41716000D01*
X92275091Y-41216000D02*
X93185091Y-41216000D01*
D14*
X93185091Y-38735000D02*
X93185091Y-52705000D01*
D13*
X93185091Y-38735000D02*
X93185091Y-52705000D01*
X93185091Y-50215000D02*
X92274819Y-50211272D01*
X112235091Y-36830000D02*
X95090091Y-36830000D01*
X112235091Y-54610000D02*
X95090091Y-54610000D01*
X114140091Y-52705000D02*
X114140091Y-38735000D01*
X91775091Y-41716000D02*
G75*
G02*
X92275091Y-41216000I500000J0D01*
G01*
X92274819Y-50211272D02*
G75*
G02*
X91775092Y-49711272I291J500018D01*
G01*
X93185091Y-38735000D02*
G75*
G02*
X95090091Y-36830000I1905000J0D01*
G01*
X95090091Y-54610000D02*
G75*
G02*
X93185091Y-52705000I1J1905001D01*
G01*
X112235091Y-36830000D02*
G75*
G02*
X114140091Y-38735000I0J-1905000D01*
G01*
X114140091Y-52705000D02*
G75*
G02*
X112235091Y-54610000I-1905001J1D01*
G01*
D15*
X93678091Y-54670000D02*
G75*
G02*
X93174091Y-54670000I-252000J0D01*
G01*
X93174091Y-54670000D02*
G75*
G02*
X93678091Y-54670000I252000J0D01*
G01*
X94558091Y-53527000D02*
G75*
G02*
X94054091Y-53527000I-252000J0D01*
G01*
X94054091Y-53527000D02*
G75*
G02*
X94558091Y-53527000I252000J0D01*
G01*
%TD*%
M02*
