%TF.GenerationSoftware,KiCad,Pcbnew,9.0.7*%
%TF.CreationDate,2026-04-10T15:56:45-04:00*%
%TF.ProjectId,Macro Pad,4d616372-6f20-4506-9164-2e6b69636164,rev?*%
%TF.SameCoordinates,Original*%
%TF.FileFunction,Copper,L1,Top*%
%TF.FilePolarity,Positive*%
%FSLAX46Y46*%
G04 Gerber Fmt 4.6, Leading zero omitted, Abs format (unit mm)*
G04 Created by KiCad (PCBNEW 9.0.7) date 2026-04-10 15:56:45*
%MOMM*%
%LPD*%
G01*
G04 APERTURE LIST*
G04 Aperture macros list*
%AMRoundRect*
0 Rectangle with rounded corners*
0 $1 Rounding radius*
0 $2 $3 $4 $5 $6 $7 $8 $9 X,Y pos of 4 corners*
0 Add a 4 corners polygon primitive as box body*
4,1,4,$2,$3,$4,$5,$6,$7,$8,$9,$2,$3,0*
0 Add four circle primitives for the rounded corners*
1,1,$1+$1,$2,$3*
1,1,$1+$1,$4,$5*
1,1,$1+$1,$6,$7*
1,1,$1+$1,$8,$9*
0 Add four rect primitives between the rounded corners*
20,1,$1+$1,$2,$3,$4,$5,0*
20,1,$1+$1,$4,$5,$6,$7,0*
20,1,$1+$1,$6,$7,$8,$9,0*
20,1,$1+$1,$8,$9,$2,$3,0*%
G04 Aperture macros list end*
%TA.AperFunction,ComponentPad*%
%ADD10C,2.200000*%
%TD*%
%TA.AperFunction,ComponentPad*%
%ADD11RoundRect,0.250000X0.550000X-0.550000X0.550000X0.550000X-0.550000X0.550000X-0.550000X-0.550000X0*%
%TD*%
%TA.AperFunction,ComponentPad*%
%ADD12C,1.600000*%
%TD*%
%TA.AperFunction,SMDPad,CuDef*%
%ADD13RoundRect,0.152400X-0.609600X1.063600X-0.609600X-1.063600X0.609600X-1.063600X0.609600X1.063600X0*%
%TD*%
%TA.AperFunction,ComponentPad*%
%ADD14C,1.524000*%
%TD*%
%TA.AperFunction,SMDPad,CuDef*%
%ADD15RoundRect,0.152400X0.609600X-1.063600X0.609600X1.063600X-0.609600X1.063600X-0.609600X-1.063600X0*%
%TD*%
%TA.AperFunction,ViaPad*%
%ADD16C,0.600000*%
%TD*%
%TA.AperFunction,Conductor*%
%ADD17C,0.200000*%
%TD*%
G04 APERTURE END LIST*
D10*
%TO.P,SW6,1,1*%
%TO.N,Column 2*%
X135883750Y-78263750D03*
%TO.P,SW6,2,2*%
%TO.N,Net-(D8-A)*%
X129533750Y-80803750D03*
%TD*%
D11*
%TO.P,D9,1,K*%
%TO.N,Row 2*%
X161918750Y-88582500D03*
D12*
%TO.P,D9,2,A*%
%TO.N,Net-(D9-A)*%
X161918750Y-80962500D03*
%TD*%
D11*
%TO.P,D18,1,K*%
%TO.N,Row 4*%
X180968750Y-126682500D03*
D12*
%TO.P,D18,2,A*%
%TO.N,Net-(D18-A)*%
X180968750Y-119062500D03*
%TD*%
D11*
%TO.P,D17,1,K*%
%TO.N,Row 4*%
X161918750Y-126682500D03*
D12*
%TO.P,D17,2,A*%
%TO.N,Net-(D17-A)*%
X161918750Y-119062500D03*
%TD*%
D11*
%TO.P,D16,1,K*%
%TO.N,Row 4*%
X142868750Y-126682500D03*
D12*
%TO.P,D16,2,A*%
%TO.N,Net-(D16-A)*%
X142868750Y-119062500D03*
%TD*%
D10*
%TO.P,SW2,1,1*%
%TO.N,Column 2*%
X135883750Y-59213750D03*
%TO.P,SW2,2,2*%
%TO.N,Net-(D4-A)*%
X129533750Y-61753750D03*
%TD*%
D11*
%TO.P,D15,1,K*%
%TO.N,Row 4*%
X123818750Y-126682500D03*
D12*
%TO.P,D15,2,A*%
%TO.N,Net-(D15-A)*%
X123818750Y-119062500D03*
%TD*%
D11*
%TO.P,D4,1,K*%
%TO.N,Row 1*%
X142868750Y-69532500D03*
D12*
%TO.P,D4,2,A*%
%TO.N,Net-(D4-A)*%
X142868750Y-61912500D03*
%TD*%
D10*
%TO.P,SW10,1,1*%
%TO.N,Column 2*%
X135883750Y-97313750D03*
%TO.P,SW10,2,2*%
%TO.N,Net-(D12-A)*%
X129533750Y-99853750D03*
%TD*%
%TO.P,SW16,1,1*%
%TO.N,Column 4*%
X173983750Y-116363750D03*
%TO.P,SW16,2,2*%
%TO.N,Net-(D18-A)*%
X167633750Y-118903750D03*
%TD*%
%TO.P,SW11,1,1*%
%TO.N,Column 3*%
X154933750Y-97313750D03*
%TO.P,SW11,2,2*%
%TO.N,Net-(D13-A)*%
X148583750Y-99853750D03*
%TD*%
D11*
%TO.P,D12,1,K*%
%TO.N,Row 3*%
X142868750Y-107632500D03*
D12*
%TO.P,D12,2,A*%
%TO.N,Net-(D12-A)*%
X142868750Y-100012500D03*
%TD*%
D11*
%TO.P,D8,1,K*%
%TO.N,Row 2*%
X142868750Y-88582500D03*
D12*
%TO.P,D8,2,A*%
%TO.N,Net-(D8-A)*%
X142868750Y-80962500D03*
%TD*%
D11*
%TO.P,D3,1,K*%
%TO.N,Row 1*%
X123818750Y-69532500D03*
D12*
%TO.P,D3,2,A*%
%TO.N,Net-(D3-A)*%
X123818750Y-61912500D03*
%TD*%
D11*
%TO.P,D5,1,K*%
%TO.N,Row 1*%
X161918750Y-69532500D03*
D12*
%TO.P,D5,2,A*%
%TO.N,Net-(D5-A)*%
X161918750Y-61912500D03*
%TD*%
D11*
%TO.P,D7,1,K*%
%TO.N,Row 2*%
X123818750Y-88582500D03*
D12*
%TO.P,D7,2,A*%
%TO.N,Net-(D7-A)*%
X123818750Y-80962500D03*
%TD*%
D11*
%TO.P,D6,1,K*%
%TO.N,Row 1*%
X180968750Y-69532500D03*
D12*
%TO.P,D6,2,A*%
%TO.N,Net-(D6-A)*%
X180968750Y-61912500D03*
%TD*%
D11*
%TO.P,D14,1,K*%
%TO.N,Row 3*%
X180968750Y-107632500D03*
D12*
%TO.P,D14,2,A*%
%TO.N,Net-(D14-A)*%
X180968750Y-100012500D03*
%TD*%
D10*
%TO.P,SW8,1,1*%
%TO.N,Column 4*%
X173983750Y-78263750D03*
%TO.P,SW8,2,2*%
%TO.N,Net-(D10-A)*%
X167633750Y-80803750D03*
%TD*%
%TO.P,SW9,1,1*%
%TO.N,Column 1*%
X116833750Y-97313750D03*
%TO.P,SW9,2,2*%
%TO.N,Net-(D11-A)*%
X110483750Y-99853750D03*
%TD*%
%TO.P,SW3,1,1*%
%TO.N,Column 3*%
X154933750Y-59213750D03*
%TO.P,SW3,2,2*%
%TO.N,Net-(D5-A)*%
X148583750Y-61753750D03*
%TD*%
D11*
%TO.P,D10,1,K*%
%TO.N,Row 2*%
X180968750Y-88582500D03*
D12*
%TO.P,D10,2,A*%
%TO.N,Net-(D10-A)*%
X180968750Y-80962500D03*
%TD*%
D10*
%TO.P,SW15,1,1*%
%TO.N,Column 3*%
X154933750Y-116363750D03*
%TO.P,SW15,2,2*%
%TO.N,Net-(D17-A)*%
X148583750Y-118903750D03*
%TD*%
%TO.P,SW12,1,1*%
%TO.N,Column 4*%
X173983750Y-97313750D03*
%TO.P,SW12,2,2*%
%TO.N,Net-(D14-A)*%
X167633750Y-99853750D03*
%TD*%
%TO.P,SW7,1,1*%
%TO.N,Column 3*%
X154933750Y-78263750D03*
%TO.P,SW7,2,2*%
%TO.N,Net-(D9-A)*%
X148583750Y-80803750D03*
%TD*%
%TO.P,SW14,1,1*%
%TO.N,Column 2*%
X135883750Y-116363750D03*
%TO.P,SW14,2,2*%
%TO.N,Net-(D16-A)*%
X129533750Y-118903750D03*
%TD*%
%TO.P,SW1,1,1*%
%TO.N,Column 1*%
X116833750Y-59213750D03*
%TO.P,SW1,2,2*%
%TO.N,Net-(D3-A)*%
X110483750Y-61753750D03*
%TD*%
%TO.P,SW5,1,1*%
%TO.N,Column 1*%
X116833750Y-78263750D03*
%TO.P,SW5,2,2*%
%TO.N,Net-(D7-A)*%
X110483750Y-80803750D03*
%TD*%
D11*
%TO.P,D11,1,K*%
%TO.N,Row 3*%
X123818750Y-107632500D03*
D12*
%TO.P,D11,2,A*%
%TO.N,Net-(D11-A)*%
X123818750Y-100012500D03*
%TD*%
D10*
%TO.P,SW4,1,1*%
%TO.N,Column 4*%
X173983750Y-59213750D03*
%TO.P,SW4,2,2*%
%TO.N,Net-(D6-A)*%
X167633750Y-61753750D03*
%TD*%
D11*
%TO.P,D13,1,K*%
%TO.N,Row 3*%
X161918750Y-107632500D03*
D12*
%TO.P,D13,2,A*%
%TO.N,Net-(D13-A)*%
X161918750Y-100012500D03*
%TD*%
D10*
%TO.P,SW13,1,1*%
%TO.N,Column 1*%
X116833750Y-116363750D03*
%TO.P,SW13,2,2*%
%TO.N,Net-(D15-A)*%
X110483750Y-118903750D03*
%TD*%
D13*
%TO.P,U2,1,GPIO26/ADC0/A0*%
%TO.N,Column 4*%
X96106091Y-54175000D03*
D14*
X96106091Y-53340000D03*
D13*
%TO.P,U2,2,GPIO27/ADC1/A1*%
%TO.N,Column 3*%
X98646091Y-54175000D03*
D14*
X98646091Y-53340000D03*
D13*
%TO.P,U2,3,GPIO28/ADC2/A2*%
%TO.N,Column 2*%
X101186091Y-54175000D03*
D14*
X101186091Y-53340000D03*
D13*
%TO.P,U2,4,GPIO29/ADC3/A3*%
%TO.N,Column 1*%
X103726091Y-54175000D03*
D14*
X103726091Y-53340000D03*
D13*
%TO.P,U2,5,GPIO6/SDA*%
%TO.N,Row 1*%
X106266091Y-54175000D03*
D14*
X106266091Y-53340000D03*
D13*
%TO.P,U2,6,GPIO7/SCL*%
%TO.N,Row 2*%
X108806091Y-54175000D03*
D14*
X108806091Y-53340000D03*
D13*
%TO.P,U2,7,GPIO0/TX*%
%TO.N,Row 3*%
X111346091Y-54175000D03*
D14*
X111346091Y-53340000D03*
%TO.P,U2,8,GPIO1/RX*%
%TO.N,Row 4*%
X111346091Y-38100000D03*
D15*
X111346091Y-37265000D03*
D14*
%TO.P,U2,9,GPIO2/SCK*%
%TO.N,unconnected-(U2-GPIO2{slash}SCK-Pad9)*%
X108806091Y-38100000D03*
D15*
X108806091Y-37265000D03*
D14*
%TO.P,U2,10,GPIO4/MISO*%
%TO.N,unconnected-(U2-GPIO4{slash}MISO-Pad10)*%
X106266091Y-38100000D03*
D15*
X106266091Y-37265000D03*
D14*
%TO.P,U2,11,GPIO3/MOSI*%
%TO.N,Net-(D21-DIN)*%
X103726091Y-38100000D03*
D15*
X103726091Y-37265000D03*
D14*
%TO.P,U2,12,3V3*%
%TO.N,unconnected-(U2-3V3-Pad12)*%
X101186091Y-38100000D03*
D15*
X101186091Y-37265000D03*
D14*
%TO.P,U2,13,GND*%
%TO.N,GND*%
X98646091Y-38100000D03*
D15*
X98646091Y-37265000D03*
D14*
%TO.P,U2,14,VBUS*%
%TO.N,+5V*%
X96106091Y-38100000D03*
D15*
X96106091Y-37265000D03*
%TD*%
D16*
%TO.N,Net-(D21-DIN)*%
X93365000Y-63805000D03*
%TO.N,GND*%
X114455000Y-116955000D03*
X179575000Y-132645000D03*
X190175000Y-128705000D03*
X123075000Y-130175000D03*
%TO.N,Row 1*%
X115005000Y-69535000D03*
X106266091Y-69565000D03*
%TO.N,Row 3*%
X122085000Y-59895000D03*
%TO.N,Column 1*%
X120495000Y-55215000D03*
%TO.N,Net-(D1-DOUT)*%
X182915000Y-103715000D03*
X185335000Y-78545000D03*
%TO.N,Net-(D1-DIN)*%
X182985000Y-126915000D03*
X185325000Y-124755000D03*
%TO.N,Net-(D19-DOUT)*%
X161995000Y-133875000D03*
X123575000Y-133595000D03*
%TD*%
D17*
%TO.N,Net-(D21-DIN)*%
X93365000Y-48461091D02*
X103726091Y-38100000D01*
X93365000Y-63805000D02*
X93365000Y-48461091D01*
%TO.N,GND*%
X116644750Y-119144750D02*
X116644750Y-123744750D01*
X179575000Y-132645000D02*
X186235000Y-132645000D01*
X186235000Y-132645000D02*
X190175000Y-128705000D01*
X116644750Y-123744750D02*
X123075000Y-130175000D01*
X114455000Y-116955000D02*
X116644750Y-119144750D01*
%TO.N,Row 1*%
X106325000Y-69605000D02*
X114975000Y-69605000D01*
X106285000Y-69565000D02*
X106325000Y-69605000D01*
X114975000Y-69605000D02*
X115005000Y-69635000D01*
X106266091Y-69565000D02*
X106285000Y-69565000D01*
X115005000Y-69635000D02*
X115005000Y-69535000D01*
%TO.N,Row 3*%
X122085000Y-105898750D02*
X123818750Y-107632500D01*
X122085000Y-59895000D02*
X122085000Y-105898750D01*
%TO.N,Row 4*%
X119845000Y-38005000D02*
X126395000Y-44555000D01*
X111346091Y-38005000D02*
X119845000Y-38005000D01*
X126395000Y-44555000D02*
X126395000Y-124106250D01*
X126395000Y-124106250D02*
X123818750Y-126682500D01*
%TO.N,Column 1*%
X120495000Y-55215000D02*
X120495000Y-55552500D01*
X116833750Y-59213750D02*
X116833750Y-116363750D01*
X120495000Y-55552500D02*
X116833750Y-59213750D01*
X115992220Y-59213750D02*
X116833750Y-59213750D01*
%TO.N,Column 2*%
X135883750Y-59213750D02*
X135883750Y-116363750D01*
X101186091Y-53245000D02*
X101186091Y-54322630D01*
%TO.N,Column 3*%
X98646091Y-53245000D02*
X98646091Y-54322630D01*
X154933750Y-116363750D02*
X154933750Y-59213750D01*
%TO.N,Column 4*%
X173983750Y-59213750D02*
X173983750Y-116363750D01*
X96106091Y-53245000D02*
X96106091Y-54322630D01*
%TO.N,Net-(D1-DOUT)*%
X182915000Y-103715000D02*
X182915000Y-80965000D01*
X182915000Y-80965000D02*
X185335000Y-78545000D01*
%TO.N,Net-(D1-DIN)*%
X182985000Y-126915000D02*
X183165000Y-126915000D01*
X183165000Y-126915000D02*
X185325000Y-124755000D01*
%TO.N,Net-(D19-DOUT)*%
X123575000Y-133595000D02*
X161715000Y-133595000D01*
X161715000Y-133595000D02*
X161995000Y-133875000D01*
%TD*%
M02*
