%TF.GenerationSoftware,KiCad,Pcbnew,9.0.7*%
%TF.CreationDate,2026-04-10T21:07:37-04:00*%
%TF.ProjectId,Macro Pad,4d616372-6f20-4506-9164-2e6b69636164,rev?*%
%TF.SameCoordinates,Original*%
%TF.FileFunction,Copper,L2,Bot*%
%TF.FilePolarity,Positive*%
%FSLAX46Y46*%
G04 Gerber Fmt 4.6, Leading zero omitted, Abs format (unit mm)*
G04 Created by KiCad (PCBNEW 9.0.7) date 2026-04-10 21:07:37*
%MOMM*%
%LPD*%
G01*
G04 APERTURE LIST*
G04 Aperture macros list*
%AMRoundRect*
0 Rectangle with rounded corners*
0 $1 Rounding radius*
0 $2 $3 $4 $5 $6 $7 $8 $9 X,Y pos of 4 corners*
0 Add a 4 corners polygon primitive as box body*
4,1,4,$2,$3,$4,$5,$6,$7,$8,$9,$2,$3,0*
0 Add four circle primitives for the rounded corners*
1,1,$1+$1,$2,$3*
1,1,$1+$1,$4,$5*
1,1,$1+$1,$6,$7*
1,1,$1+$1,$8,$9*
0 Add four rect primitives between the rounded corners*
20,1,$1+$1,$2,$3,$4,$5,0*
20,1,$1+$1,$4,$5,$6,$7,0*
20,1,$1+$1,$6,$7,$8,$9,0*
20,1,$1+$1,$8,$9,$2,$3,0*%
G04 Aperture macros list end*
%TA.AperFunction,ComponentPad*%
%ADD10C,1.524000*%
%TD*%
%TA.AperFunction,ComponentPad*%
%ADD11C,2.200000*%
%TD*%
%TA.AperFunction,ComponentPad*%
%ADD12RoundRect,0.250000X0.550000X-0.550000X0.550000X0.550000X-0.550000X0.550000X-0.550000X-0.550000X0*%
%TD*%
%TA.AperFunction,ComponentPad*%
%ADD13C,1.600000*%
%TD*%
%TA.AperFunction,SMDPad,CuDef*%
%ADD14R,1.600000X0.850000*%
%TD*%
%TA.AperFunction,ViaPad*%
%ADD15C,0.600000*%
%TD*%
%TA.AperFunction,Conductor*%
%ADD16C,0.200000*%
%TD*%
G04 APERTURE END LIST*
D10*
%TO.P,U2,14,VBUS*%
%TO.N,+5V*%
X96003500Y-38585000D03*
%TO.P,U2,13,GND*%
%TO.N,GND*%
X98543500Y-38585000D03*
%TO.P,U2,12,3V3*%
%TO.N,unconnected-(U2-3V3-Pad12)*%
X101083500Y-38585000D03*
%TO.P,U2,11,GPIO3/MOSI*%
%TO.N,Net-(D21-DIN)*%
X103623500Y-38585000D03*
%TO.P,U2,10,GPIO4/MISO*%
%TO.N,unconnected-(U2-GPIO4{slash}MISO-Pad10)*%
X106163500Y-38585000D03*
%TO.P,U2,9,GPIO2/SCK*%
%TO.N,unconnected-(U2-GPIO2{slash}SCK-Pad9)*%
X108703500Y-38585000D03*
%TO.P,U2,8,GPIO1/RX*%
%TO.N,Row 4*%
X111243500Y-38585000D03*
%TO.P,U2,7,GPIO0/TX*%
%TO.N,Row 3*%
X111243500Y-53825000D03*
%TO.P,U2,6,GPIO7/SCL*%
%TO.N,Row 2*%
X108703500Y-53825000D03*
%TO.P,U2,5,GPIO6/SDA*%
%TO.N,Row 1*%
X106163500Y-53825000D03*
%TO.P,U2,4,GPIO29/ADC3/A3*%
%TO.N,Column 1*%
X103623500Y-53825000D03*
%TO.P,U2,3,GPIO28/ADC2/A2*%
%TO.N,Column 2*%
X101083500Y-53825000D03*
%TO.P,U2,2,GPIO27/ADC1/A1*%
%TO.N,Column 3*%
X98543500Y-53825000D03*
%TO.P,U2,1,GPIO26/ADC0/A0*%
%TO.N,Column 4*%
X96003500Y-53825000D03*
%TD*%
D11*
%TO.P,SW6,1,1*%
%TO.N,Column 2*%
X135883750Y-78263750D03*
%TO.P,SW6,2,2*%
%TO.N,Net-(D8-A)*%
X129533750Y-80803750D03*
%TD*%
D12*
%TO.P,D9,1,K*%
%TO.N,Row 2*%
X161918750Y-88582500D03*
D13*
%TO.P,D9,2,A*%
%TO.N,Net-(D9-A)*%
X161918750Y-80962500D03*
%TD*%
D12*
%TO.P,D18,1,K*%
%TO.N,Row 4*%
X180968750Y-126682500D03*
D13*
%TO.P,D18,2,A*%
%TO.N,Net-(D18-A)*%
X180968750Y-119062500D03*
%TD*%
D12*
%TO.P,D17,1,K*%
%TO.N,Row 4*%
X161918750Y-126682500D03*
D13*
%TO.P,D17,2,A*%
%TO.N,Net-(D17-A)*%
X161918750Y-119062500D03*
%TD*%
D12*
%TO.P,D16,1,K*%
%TO.N,Row 4*%
X142868750Y-126682500D03*
D13*
%TO.P,D16,2,A*%
%TO.N,Net-(D16-A)*%
X142868750Y-119062500D03*
%TD*%
D11*
%TO.P,SW2,1,1*%
%TO.N,Column 2*%
X135883750Y-59213750D03*
%TO.P,SW2,2,2*%
%TO.N,Net-(D4-A)*%
X129533750Y-61753750D03*
%TD*%
D12*
%TO.P,D15,1,K*%
%TO.N,Row 4*%
X123818750Y-126682500D03*
D13*
%TO.P,D15,2,A*%
%TO.N,Net-(D15-A)*%
X123818750Y-119062500D03*
%TD*%
D12*
%TO.P,D4,1,K*%
%TO.N,Row 1*%
X142868750Y-69532500D03*
D13*
%TO.P,D4,2,A*%
%TO.N,Net-(D4-A)*%
X142868750Y-61912500D03*
%TD*%
D11*
%TO.P,SW10,1,1*%
%TO.N,Column 2*%
X135883750Y-97313750D03*
%TO.P,SW10,2,2*%
%TO.N,Net-(D12-A)*%
X129533750Y-99853750D03*
%TD*%
%TO.P,SW16,1,1*%
%TO.N,Column 4*%
X173983750Y-116363750D03*
%TO.P,SW16,2,2*%
%TO.N,Net-(D18-A)*%
X167633750Y-118903750D03*
%TD*%
%TO.P,SW11,1,1*%
%TO.N,Column 3*%
X154933750Y-97313750D03*
%TO.P,SW11,2,2*%
%TO.N,Net-(D13-A)*%
X148583750Y-99853750D03*
%TD*%
D12*
%TO.P,D12,1,K*%
%TO.N,Row 3*%
X142868750Y-107632500D03*
D13*
%TO.P,D12,2,A*%
%TO.N,Net-(D12-A)*%
X142868750Y-100012500D03*
%TD*%
D12*
%TO.P,D8,1,K*%
%TO.N,Row 2*%
X142868750Y-88582500D03*
D13*
%TO.P,D8,2,A*%
%TO.N,Net-(D8-A)*%
X142868750Y-80962500D03*
%TD*%
D12*
%TO.P,D3,1,K*%
%TO.N,Row 1*%
X123818750Y-69532500D03*
D13*
%TO.P,D3,2,A*%
%TO.N,Net-(D3-A)*%
X123818750Y-61912500D03*
%TD*%
D12*
%TO.P,D5,1,K*%
%TO.N,Row 1*%
X161918750Y-69532500D03*
D13*
%TO.P,D5,2,A*%
%TO.N,Net-(D5-A)*%
X161918750Y-61912500D03*
%TD*%
D12*
%TO.P,D7,1,K*%
%TO.N,Row 2*%
X123818750Y-88582500D03*
D13*
%TO.P,D7,2,A*%
%TO.N,Net-(D7-A)*%
X123818750Y-80962500D03*
%TD*%
D12*
%TO.P,D6,1,K*%
%TO.N,Row 1*%
X180968750Y-69532500D03*
D13*
%TO.P,D6,2,A*%
%TO.N,Net-(D6-A)*%
X180968750Y-61912500D03*
%TD*%
D12*
%TO.P,D14,1,K*%
%TO.N,Row 3*%
X180968750Y-107632500D03*
D13*
%TO.P,D14,2,A*%
%TO.N,Net-(D14-A)*%
X180968750Y-100012500D03*
%TD*%
D11*
%TO.P,SW8,1,1*%
%TO.N,Column 4*%
X173983750Y-78263750D03*
%TO.P,SW8,2,2*%
%TO.N,Net-(D10-A)*%
X167633750Y-80803750D03*
%TD*%
%TO.P,SW9,1,1*%
%TO.N,Column 1*%
X116833750Y-97313750D03*
%TO.P,SW9,2,2*%
%TO.N,Net-(D11-A)*%
X110483750Y-99853750D03*
%TD*%
%TO.P,SW3,1,1*%
%TO.N,Column 3*%
X154933750Y-59213750D03*
%TO.P,SW3,2,2*%
%TO.N,Net-(D5-A)*%
X148583750Y-61753750D03*
%TD*%
D12*
%TO.P,D10,1,K*%
%TO.N,Row 2*%
X180968750Y-88582500D03*
D13*
%TO.P,D10,2,A*%
%TO.N,Net-(D10-A)*%
X180968750Y-80962500D03*
%TD*%
D11*
%TO.P,SW15,1,1*%
%TO.N,Column 3*%
X154933750Y-116363750D03*
%TO.P,SW15,2,2*%
%TO.N,Net-(D17-A)*%
X148583750Y-118903750D03*
%TD*%
%TO.P,SW12,1,1*%
%TO.N,Column 4*%
X173983750Y-97313750D03*
%TO.P,SW12,2,2*%
%TO.N,Net-(D14-A)*%
X167633750Y-99853750D03*
%TD*%
%TO.P,SW7,1,1*%
%TO.N,Column 3*%
X154933750Y-78263750D03*
%TO.P,SW7,2,2*%
%TO.N,Net-(D9-A)*%
X148583750Y-80803750D03*
%TD*%
%TO.P,SW14,1,1*%
%TO.N,Column 2*%
X135883750Y-116363750D03*
%TO.P,SW14,2,2*%
%TO.N,Net-(D16-A)*%
X129533750Y-118903750D03*
%TD*%
%TO.P,SW5,1,1*%
%TO.N,Column 1*%
X116833750Y-78263750D03*
%TO.P,SW5,2,2*%
%TO.N,Net-(D7-A)*%
X110483750Y-80803750D03*
%TD*%
D12*
%TO.P,D11,1,K*%
%TO.N,Row 3*%
X123818750Y-107632500D03*
D13*
%TO.P,D11,2,A*%
%TO.N,Net-(D11-A)*%
X123818750Y-100012500D03*
%TD*%
D11*
%TO.P,SW4,1,1*%
%TO.N,Column 4*%
X173983750Y-59213750D03*
%TO.P,SW4,2,2*%
%TO.N,Net-(D6-A)*%
X167633750Y-61753750D03*
%TD*%
D12*
%TO.P,D13,1,K*%
%TO.N,Row 3*%
X161918750Y-107632500D03*
D13*
%TO.P,D13,2,A*%
%TO.N,Net-(D13-A)*%
X161918750Y-100012500D03*
%TD*%
D11*
%TO.P,SW13,1,1*%
%TO.N,Column 1*%
X116833750Y-116363750D03*
%TO.P,SW13,2,2*%
%TO.N,Net-(D15-A)*%
X110483750Y-118903750D03*
%TD*%
D14*
%TO.P,D22,1,VSS*%
%TO.N,GND*%
X104143750Y-111043750D03*
%TO.P,D22,2,DIN*%
%TO.N,Net-(D21-DOUT)*%
X104143750Y-112793750D03*
%TO.P,D22,3,VDD*%
%TO.N,+5V*%
X100643750Y-112793750D03*
%TO.P,D22,4,DOUT*%
%TO.N,Net-(D19-DIN)*%
X100643750Y-111043750D03*
%TD*%
%TO.P,D21,1,VSS*%
%TO.N,GND*%
X104143750Y-72943750D03*
%TO.P,D21,2,DIN*%
%TO.N,Net-(D21-DIN)*%
X104143750Y-74693750D03*
%TO.P,D21,3,VDD*%
%TO.N,+5V*%
X100643750Y-74693750D03*
%TO.P,D21,4,DOUT*%
%TO.N,Net-(D21-DOUT)*%
X100643750Y-72943750D03*
%TD*%
%TO.P,D19,1,VSS*%
%TO.N,GND*%
X125575000Y-132475000D03*
%TO.P,D19,2,DIN*%
%TO.N,Net-(D19-DIN)*%
X125575000Y-134225000D03*
%TO.P,D19,3,VDD*%
%TO.N,+5V*%
X122075000Y-134225000D03*
%TO.P,D19,4,DOUT*%
%TO.N,Net-(D19-DOUT)*%
X122075000Y-132475000D03*
%TD*%
%TO.P,D2,1,VSS*%
%TO.N,GND*%
X185106250Y-72943750D03*
%TO.P,D2,2,DIN*%
%TO.N,Net-(D1-DOUT)*%
X185106250Y-74693750D03*
%TO.P,D2,3,VDD*%
%TO.N,+5V*%
X181606250Y-74693750D03*
%TO.P,D2,4,DOUT*%
%TO.N,unconnected-(D2-DOUT-Pad4)*%
X181606250Y-72943750D03*
%TD*%
%TO.P,D20,1,VSS*%
%TO.N,GND*%
X163675000Y-132475000D03*
%TO.P,D20,2,DIN*%
%TO.N,Net-(D19-DOUT)*%
X163675000Y-134225000D03*
%TO.P,D20,3,VDD*%
%TO.N,+5V*%
X160175000Y-134225000D03*
%TO.P,D20,4,DOUT*%
%TO.N,Net-(D1-DIN)*%
X160175000Y-132475000D03*
%TD*%
%TO.P,D1,1,VSS*%
%TO.N,GND*%
X185106250Y-111043750D03*
%TO.P,D1,2,DIN*%
%TO.N,Net-(D1-DIN)*%
X185106250Y-112793750D03*
%TO.P,D1,3,VDD*%
%TO.N,+5V*%
X181606250Y-112793750D03*
%TO.P,D1,4,DOUT*%
%TO.N,Net-(D1-DOUT)*%
X181606250Y-111043750D03*
%TD*%
D11*
%TO.P,SW1,1,1*%
%TO.N,Column 1*%
X116833750Y-59213750D03*
%TO.P,SW1,2,2*%
%TO.N,Net-(D3-A)*%
X110483750Y-61753750D03*
%TD*%
D15*
%TO.N,GND*%
X102335000Y-69235000D03*
X96485000Y-63305000D03*
X96025000Y-50315000D03*
%TO.N,+5V*%
X99165000Y-73775000D03*
%TO.N,Row 3*%
X115685000Y-108115000D03*
X98585000Y-108045000D03*
%TO.N,Row 2*%
X114355000Y-88485000D03*
X95315000Y-88445000D03*
%TO.N,Row 1*%
X115055000Y-69505000D03*
%TO.N,Row 4*%
X120045000Y-129165000D03*
%TO.N,GND*%
X190175000Y-128705000D03*
X114455000Y-116955000D03*
X179575000Y-132645000D03*
X123075000Y-130175000D03*
%TO.N,Net-(D1-DOUT)*%
X182915000Y-103715000D03*
X185335000Y-78545000D03*
%TO.N,Net-(D1-DIN)*%
X182985000Y-126915000D03*
X185325000Y-124755000D03*
%TO.N,Net-(D19-DOUT)*%
X161995000Y-133875000D03*
X123575000Y-133595000D03*
%TD*%
D16*
%TO.N,Net-(D21-DIN)*%
X103165000Y-73715000D02*
X104143750Y-74693750D01*
X102685000Y-73715000D02*
X103165000Y-73715000D01*
X99645000Y-69585000D02*
X102685000Y-72625000D01*
X102685000Y-72625000D02*
X102685000Y-73715000D01*
X116015000Y-53215000D02*
X99645000Y-69585000D01*
X103623500Y-38585000D02*
X116015000Y-50976500D01*
X116015000Y-50976500D02*
X116015000Y-53215000D01*
%TO.N,GND*%
X104143750Y-71173750D02*
X104143750Y-72943750D01*
X102335000Y-69235000D02*
X102335000Y-69365000D01*
X102335000Y-69365000D02*
X104143750Y-71173750D01*
X96485000Y-63255000D02*
X96485000Y-63305000D01*
X94025000Y-52315000D02*
X94025000Y-60795000D01*
X96025000Y-50315000D02*
X94025000Y-52315000D01*
X94025000Y-60795000D02*
X96485000Y-63255000D01*
%TO.N,Row 3*%
X97825000Y-91555000D02*
X97825000Y-67243500D01*
X97825000Y-91595000D02*
X97845000Y-91575000D01*
X97825000Y-91625000D02*
X97825000Y-91595000D01*
X97845000Y-91575000D02*
X97825000Y-91555000D01*
%TO.N,Row 2*%
X95325000Y-67203500D02*
X108703500Y-53825000D01*
X95325000Y-86125000D02*
X95325000Y-67203500D01*
X95315000Y-88445000D02*
X95315000Y-86135000D01*
X95315000Y-86135000D02*
X95325000Y-86125000D01*
%TO.N,Row 3*%
X98525000Y-107985000D02*
X98585000Y-108045000D01*
X98525000Y-92325000D02*
X98525000Y-107985000D01*
X97825000Y-91625000D02*
X98525000Y-92325000D01*
X111243500Y-53825000D02*
X97825000Y-67243500D01*
%TO.N,+5V*%
X99725000Y-73775000D02*
X100643750Y-74693750D01*
X99165000Y-73775000D02*
X99725000Y-73775000D01*
%TO.N,Row 3*%
X116167500Y-107632500D02*
X123818750Y-107632500D01*
X115685000Y-108115000D02*
X116167500Y-107632500D01*
%TO.N,Row 1*%
X116712500Y-69532500D02*
X123818750Y-69532500D01*
X116685000Y-69505000D02*
X116712500Y-69532500D01*
X115055000Y-69505000D02*
X116685000Y-69505000D01*
%TO.N,Row 4*%
X122907500Y-126682500D02*
X123818750Y-126682500D01*
X120425000Y-129165000D02*
X122907500Y-126682500D01*
X120045000Y-129165000D02*
X120425000Y-129165000D01*
%TO.N,+5V*%
X183795000Y-114982500D02*
X181606250Y-112793750D01*
X100643750Y-74693750D02*
X99542750Y-75794750D01*
X184095000Y-77182500D02*
X181606250Y-74693750D01*
X181606250Y-112793750D02*
X184095000Y-110305000D01*
X120296530Y-134225000D02*
X122075000Y-134225000D01*
X184095000Y-110305000D02*
X184095000Y-77182500D01*
X122801000Y-134951000D02*
X159449000Y-134951000D01*
X160175000Y-134225000D02*
X160901000Y-134951000D01*
X99542750Y-111692750D02*
X100643750Y-112793750D01*
X159449000Y-134951000D02*
X160175000Y-134225000D01*
X183795000Y-131775000D02*
X183795000Y-114982500D01*
X100643750Y-112793750D02*
X100643750Y-114572220D01*
X180619000Y-134951000D02*
X183795000Y-131775000D01*
X99542750Y-75794750D02*
X99542750Y-111692750D01*
X100643750Y-114572220D02*
X120296530Y-134225000D01*
X160901000Y-134951000D02*
X180619000Y-134951000D01*
X122075000Y-134225000D02*
X122801000Y-134951000D01*
%TO.N,GND*%
X106655000Y-73052500D02*
X106546250Y-72943750D01*
X186403750Y-72943750D02*
X185106250Y-72943750D01*
X162949000Y-131749000D02*
X163675000Y-132475000D01*
X126301000Y-131749000D02*
X162949000Y-131749000D01*
X125575000Y-132475000D02*
X126301000Y-131749000D01*
X185106250Y-111043750D02*
X188465000Y-107685000D01*
X106655000Y-108532500D02*
X106655000Y-73052500D01*
X163675000Y-132475000D02*
X179405000Y-132475000D01*
X106546250Y-72943750D02*
X104143750Y-72943750D01*
X104143750Y-111043750D02*
X106655000Y-108532500D01*
X104143750Y-111043750D02*
X108543750Y-111043750D01*
X123075000Y-130175000D02*
X123275000Y-130175000D01*
X123275000Y-130175000D02*
X125575000Y-132475000D01*
X188465000Y-107685000D02*
X188465000Y-75005000D01*
X179405000Y-132475000D02*
X179575000Y-132645000D01*
X108543750Y-111043750D02*
X114455000Y-116955000D01*
X188465000Y-75005000D02*
X186403750Y-72943750D01*
%TO.N,Row 1*%
X123818750Y-69532500D02*
X180968750Y-69532500D01*
%TO.N,Net-(D3-A)*%
X110642500Y-61912500D02*
X123818750Y-61912500D01*
X110483750Y-61753750D02*
X110642500Y-61912500D01*
%TO.N,Net-(D4-A)*%
X129533750Y-61753750D02*
X142710000Y-61753750D01*
X142710000Y-61753750D02*
X142868750Y-61912500D01*
%TO.N,Net-(D5-A)*%
X161760000Y-61753750D02*
X161918750Y-61912500D01*
X148583750Y-61753750D02*
X161760000Y-61753750D01*
%TO.N,Net-(D6-A)*%
X167633750Y-61753750D02*
X180810000Y-61753750D01*
X180810000Y-61753750D02*
X180968750Y-61912500D01*
%TO.N,Row 2*%
X123818750Y-88582500D02*
X180968750Y-88582500D01*
%TO.N,Net-(D7-A)*%
X110483750Y-80803750D02*
X123660000Y-80803750D01*
X123660000Y-80803750D02*
X123818750Y-80962500D01*
%TO.N,Net-(D8-A)*%
X129533750Y-80803750D02*
X142710000Y-80803750D01*
X142710000Y-80803750D02*
X142868750Y-80962500D01*
%TO.N,Net-(D9-A)*%
X148583750Y-80803750D02*
X161760000Y-80803750D01*
X161760000Y-80803750D02*
X161918750Y-80962500D01*
%TO.N,Net-(D10-A)*%
X167633750Y-80803750D02*
X180810000Y-80803750D01*
%TO.N,Net-(D11-A)*%
X123660000Y-99853750D02*
X123818750Y-100012500D01*
X110483750Y-99853750D02*
X123660000Y-99853750D01*
%TO.N,Row 3*%
X123818750Y-107632500D02*
X180968750Y-107632500D01*
%TO.N,Row 4*%
X123818750Y-126682500D02*
X180968750Y-126682500D01*
%TO.N,Net-(D12-A)*%
X129533750Y-99853750D02*
X142710000Y-99853750D01*
X142710000Y-99853750D02*
X142868750Y-100012500D01*
%TO.N,Net-(D13-A)*%
X161760000Y-99853750D02*
X161918750Y-100012500D01*
X148583750Y-99853750D02*
X161760000Y-99853750D01*
%TO.N,Net-(D14-A)*%
X167633750Y-99853750D02*
X180810000Y-99853750D01*
X180810000Y-99853750D02*
X180968750Y-100012500D01*
%TO.N,Net-(D15-A)*%
X123660000Y-118903750D02*
X123818750Y-119062500D01*
X110483750Y-118903750D02*
X123660000Y-118903750D01*
%TO.N,Net-(D16-A)*%
X129533750Y-118903750D02*
X142710000Y-118903750D01*
X142710000Y-118903750D02*
X142868750Y-119062500D01*
%TO.N,Net-(D17-A)*%
X161760000Y-118903750D02*
X161918750Y-119062500D01*
X148583750Y-118903750D02*
X161760000Y-118903750D01*
%TO.N,Net-(D18-A)*%
X180810000Y-118903750D02*
X180968750Y-119062500D01*
X167633750Y-118903750D02*
X180810000Y-118903750D01*
X180810000Y-118903750D02*
X180968750Y-119062500D01*
%TO.N,Net-(D1-DOUT)*%
X181606250Y-111043750D02*
X182915000Y-109735000D01*
X185335000Y-78545000D02*
X185106250Y-78316250D01*
X185106250Y-78316250D02*
X185106250Y-74693750D01*
X182915000Y-109735000D02*
X182915000Y-103715000D01*
%TO.N,Net-(D1-DIN)*%
X180446000Y-133474000D02*
X182985000Y-130935000D01*
X162443943Y-133474000D02*
X180446000Y-133474000D01*
X185335000Y-113022500D02*
X185106250Y-112793750D01*
X185325000Y-124755000D02*
X185335000Y-124745000D01*
X185335000Y-124745000D02*
X185335000Y-113022500D01*
X182985000Y-130935000D02*
X182985000Y-126915000D01*
X160175000Y-132475000D02*
X161444943Y-132475000D01*
X161444943Y-132475000D02*
X162443943Y-133474000D01*
%TO.N,Net-(D19-DOUT)*%
X161995000Y-133875000D02*
X163325000Y-133875000D01*
X122075000Y-132475000D02*
X122455000Y-132475000D01*
X122455000Y-132475000D02*
X123575000Y-133595000D01*
X163325000Y-133875000D02*
X163675000Y-134225000D01*
%TO.N,Net-(D19-DIN)*%
X120974000Y-131749000D02*
X123099000Y-131749000D01*
X110414750Y-121189750D02*
X120974000Y-131749000D01*
X100643750Y-111043750D02*
X110414750Y-120814750D01*
X110414750Y-120814750D02*
X110414750Y-121189750D01*
X123099000Y-131749000D02*
X125575000Y-134225000D01*
%TO.N,Net-(D21-DOUT)*%
X100643750Y-72943750D02*
X101744750Y-74044750D01*
X101744750Y-110394750D02*
X104143750Y-112793750D01*
X101744750Y-74044750D02*
X101744750Y-110394750D01*
%TO.N,GND*%
X190175000Y-116112500D02*
X185106250Y-111043750D01*
X190175000Y-128705000D02*
X190175000Y-116112500D01*
%TO.N,Row 2*%
X115045000Y-88485000D02*
X115142500Y-88582500D01*
X115142500Y-88582500D02*
X123818750Y-88582500D01*
X114355000Y-88485000D02*
X115045000Y-88485000D01*
%TD*%
M02*
