M48
; DRILL file {KiCad 9.0.7} date 2026-04-10T21:07:44-0400
; FORMAT={-:-/ absolute / metric / decimal}
; #@! TF.CreationDate,2026-04-10T21:07:44-04:00
; #@! TF.GenerationSoftware,Kicad,Pcbnew,9.0.7
; #@! TF.FileFunction,NonPlated,1,2,NPTH
FMAT,2
METRIC
; #@! TA.AperFunction,NonPlated,NPTH,ComponentDrill
T1C1.700
; #@! TA.AperFunction,NonPlated,NPTH,ComponentDrill
T2C4.000
%
G90
G05
T1
X109.214Y-64.294
X109.214Y-83.344
X109.214Y-102.394
X109.214Y-121.444
X119.374Y-64.294
X119.374Y-83.344
X119.374Y-102.394
X119.374Y-121.444
X128.264Y-64.294
X128.264Y-83.344
X128.264Y-102.394
X128.264Y-121.444
X138.424Y-64.294
X138.424Y-83.344
X138.424Y-102.394
X138.424Y-121.444
X147.314Y-64.294
X147.314Y-83.344
X147.314Y-102.394
X147.314Y-121.444
X157.474Y-64.294
X157.474Y-83.344
X157.474Y-102.394
X157.474Y-121.444
X166.364Y-64.294
X166.364Y-83.344
X166.364Y-102.394
X166.364Y-121.444
X176.524Y-64.294
X176.524Y-83.344
X176.524Y-102.394
X176.524Y-121.444
T2
X114.294Y-64.294
X114.294Y-83.344
X114.294Y-102.394
X114.294Y-121.444
X133.344Y-64.294
X133.344Y-83.344
X133.344Y-102.394
X133.344Y-121.444
X152.394Y-64.294
X152.394Y-83.344
X152.394Y-102.394
X152.394Y-121.444
X171.444Y-64.294
X171.444Y-83.344
X171.444Y-102.394
X171.444Y-121.444
M30
