M48
; DRILL file {KiCad 9.0.7} date 2026-04-10T15:57:14-0400
; FORMAT={-:-/ absolute / metric / decimal}
; #@! TF.CreationDate,2026-04-10T15:57:14-04:00
; #@! TF.GenerationSoftware,Kicad,Pcbnew,9.0.7
; #@! TF.FileFunction,Plated,1,2,PTH
FMAT,2
METRIC
; #@! TA.AperFunction,Plated,PTH,ViaDrill
T1C0.300
; #@! TA.AperFunction,Plated,PTH,ComponentDrill
T2C0.800
; #@! TA.AperFunction,Plated,PTH,ComponentDrill
T3C0.889
; #@! TA.AperFunction,Plated,PTH,ComponentDrill
T4C1.500
%
G90
G05
T1
X93.365Y-63.805
X106.266Y-69.565
X114.455Y-116.955
X115.005Y-69.535
X120.495Y-55.215
X122.085Y-59.895
X123.075Y-130.175
X123.575Y-133.595
X161.995Y-133.875
X179.575Y-132.645
X182.915Y-103.715
X182.985Y-126.915
X185.325Y-124.755
X185.335Y-78.545
X190.175Y-128.705
T2
X123.819Y-61.912
X123.819Y-69.532
X123.819Y-80.962
X123.819Y-88.582
X123.819Y-100.012
X123.819Y-107.632
X123.819Y-119.062
X123.819Y-126.682
X142.869Y-61.912
X142.869Y-69.532
X142.869Y-80.962
X142.869Y-88.582
X142.869Y-100.012
X142.869Y-107.632
X142.869Y-119.062
X142.869Y-126.682
X161.919Y-61.912
X161.919Y-69.532
X161.919Y-80.962
X161.919Y-88.582
X161.919Y-100.012
X161.919Y-107.632
X161.919Y-119.062
X161.919Y-126.682
X180.969Y-61.912
X180.969Y-69.532
X180.969Y-80.962
X180.969Y-88.582
X180.969Y-100.012
X180.969Y-107.632
X180.969Y-119.062
X180.969Y-126.682
T3
X96.106Y-38.1
X96.106Y-53.34
X98.646Y-38.1
X98.646Y-53.34
X101.186Y-38.1
X101.186Y-53.34
X103.726Y-38.1
X103.726Y-53.34
X106.266Y-38.1
X106.266Y-53.34
X108.806Y-38.1
X108.806Y-53.34
X111.346Y-38.1
X111.346Y-53.34
T4
X110.484Y-61.754
X110.484Y-80.804
X110.484Y-99.854
X110.484Y-118.904
X116.834Y-59.214
X116.834Y-78.264
X116.834Y-97.314
X116.834Y-116.364
X129.534Y-61.754
X129.534Y-80.804
X129.534Y-99.854
X129.534Y-118.904
X135.884Y-59.214
X135.884Y-78.264
X135.884Y-97.314
X135.884Y-116.364
X148.584Y-61.754
X148.584Y-80.804
X148.584Y-99.854
X148.584Y-118.904
X154.934Y-59.214
X154.934Y-78.264
X154.934Y-97.314
X154.934Y-116.364
X167.634Y-61.754
X167.634Y-80.804
X167.634Y-99.854
X167.634Y-118.904
X173.984Y-59.214
X173.984Y-78.264
X173.984Y-97.314
X173.984Y-116.364
M30
