%TF.GenerationSoftware,KiCad,Pcbnew,9.0.7*%
%TF.CreationDate,2026-04-10T15:56:46-04:00*%
%TF.ProjectId,Macro Pad,4d616372-6f20-4506-9164-2e6b69636164,rev?*%
%TF.SameCoordinates,Original*%
%TF.FileFunction,Legend,Bot*%
%TF.FilePolarity,Positive*%
%FSLAX46Y46*%
G04 Gerber Fmt 4.6, Leading zero omitted, Abs format (unit mm)*
G04 Created by KiCad (PCBNEW 9.0.7) date 2026-04-10 15:56:46*
%MOMM*%
%LPD*%
G01*
G04 APERTURE LIST*
%ADD10C,0.150000*%
%ADD11C,0.120000*%
G04 APERTURE END LIST*
D10*
X103608035Y-109623569D02*
X103608035Y-108623569D01*
X103608035Y-108623569D02*
X103369940Y-108623569D01*
X103369940Y-108623569D02*
X103227083Y-108671188D01*
X103227083Y-108671188D02*
X103131845Y-108766426D01*
X103131845Y-108766426D02*
X103084226Y-108861664D01*
X103084226Y-108861664D02*
X103036607Y-109052140D01*
X103036607Y-109052140D02*
X103036607Y-109194997D01*
X103036607Y-109194997D02*
X103084226Y-109385473D01*
X103084226Y-109385473D02*
X103131845Y-109480711D01*
X103131845Y-109480711D02*
X103227083Y-109575950D01*
X103227083Y-109575950D02*
X103369940Y-109623569D01*
X103369940Y-109623569D02*
X103608035Y-109623569D01*
X102655654Y-108718807D02*
X102608035Y-108671188D01*
X102608035Y-108671188D02*
X102512797Y-108623569D01*
X102512797Y-108623569D02*
X102274702Y-108623569D01*
X102274702Y-108623569D02*
X102179464Y-108671188D01*
X102179464Y-108671188D02*
X102131845Y-108718807D01*
X102131845Y-108718807D02*
X102084226Y-108814045D01*
X102084226Y-108814045D02*
X102084226Y-108909283D01*
X102084226Y-108909283D02*
X102131845Y-109052140D01*
X102131845Y-109052140D02*
X102703273Y-109623569D01*
X102703273Y-109623569D02*
X102084226Y-109623569D01*
X101703273Y-108718807D02*
X101655654Y-108671188D01*
X101655654Y-108671188D02*
X101560416Y-108623569D01*
X101560416Y-108623569D02*
X101322321Y-108623569D01*
X101322321Y-108623569D02*
X101227083Y-108671188D01*
X101227083Y-108671188D02*
X101179464Y-108718807D01*
X101179464Y-108718807D02*
X101131845Y-108814045D01*
X101131845Y-108814045D02*
X101131845Y-108909283D01*
X101131845Y-108909283D02*
X101179464Y-109052140D01*
X101179464Y-109052140D02*
X101750892Y-109623569D01*
X101750892Y-109623569D02*
X101131845Y-109623569D01*
X105365178Y-111406045D02*
X105822321Y-111406045D01*
X105593749Y-111406045D02*
X105593749Y-110606045D01*
X105593749Y-110606045D02*
X105669940Y-110720330D01*
X105669940Y-110720330D02*
X105746130Y-110796521D01*
X105746130Y-110796521D02*
X105822321Y-110834616D01*
X103608035Y-71523569D02*
X103608035Y-70523569D01*
X103608035Y-70523569D02*
X103369940Y-70523569D01*
X103369940Y-70523569D02*
X103227083Y-70571188D01*
X103227083Y-70571188D02*
X103131845Y-70666426D01*
X103131845Y-70666426D02*
X103084226Y-70761664D01*
X103084226Y-70761664D02*
X103036607Y-70952140D01*
X103036607Y-70952140D02*
X103036607Y-71094997D01*
X103036607Y-71094997D02*
X103084226Y-71285473D01*
X103084226Y-71285473D02*
X103131845Y-71380711D01*
X103131845Y-71380711D02*
X103227083Y-71475950D01*
X103227083Y-71475950D02*
X103369940Y-71523569D01*
X103369940Y-71523569D02*
X103608035Y-71523569D01*
X102655654Y-70618807D02*
X102608035Y-70571188D01*
X102608035Y-70571188D02*
X102512797Y-70523569D01*
X102512797Y-70523569D02*
X102274702Y-70523569D01*
X102274702Y-70523569D02*
X102179464Y-70571188D01*
X102179464Y-70571188D02*
X102131845Y-70618807D01*
X102131845Y-70618807D02*
X102084226Y-70714045D01*
X102084226Y-70714045D02*
X102084226Y-70809283D01*
X102084226Y-70809283D02*
X102131845Y-70952140D01*
X102131845Y-70952140D02*
X102703273Y-71523569D01*
X102703273Y-71523569D02*
X102084226Y-71523569D01*
X101131845Y-71523569D02*
X101703273Y-71523569D01*
X101417559Y-71523569D02*
X101417559Y-70523569D01*
X101417559Y-70523569D02*
X101512797Y-70666426D01*
X101512797Y-70666426D02*
X101608035Y-70761664D01*
X101608035Y-70761664D02*
X101703273Y-70809283D01*
X105365178Y-73306045D02*
X105822321Y-73306045D01*
X105593749Y-73306045D02*
X105593749Y-72506045D01*
X105593749Y-72506045D02*
X105669940Y-72620330D01*
X105669940Y-72620330D02*
X105746130Y-72696521D01*
X105746130Y-72696521D02*
X105822321Y-72734616D01*
X125039285Y-131054819D02*
X125039285Y-130054819D01*
X125039285Y-130054819D02*
X124801190Y-130054819D01*
X124801190Y-130054819D02*
X124658333Y-130102438D01*
X124658333Y-130102438D02*
X124563095Y-130197676D01*
X124563095Y-130197676D02*
X124515476Y-130292914D01*
X124515476Y-130292914D02*
X124467857Y-130483390D01*
X124467857Y-130483390D02*
X124467857Y-130626247D01*
X124467857Y-130626247D02*
X124515476Y-130816723D01*
X124515476Y-130816723D02*
X124563095Y-130911961D01*
X124563095Y-130911961D02*
X124658333Y-131007200D01*
X124658333Y-131007200D02*
X124801190Y-131054819D01*
X124801190Y-131054819D02*
X125039285Y-131054819D01*
X123515476Y-131054819D02*
X124086904Y-131054819D01*
X123801190Y-131054819D02*
X123801190Y-130054819D01*
X123801190Y-130054819D02*
X123896428Y-130197676D01*
X123896428Y-130197676D02*
X123991666Y-130292914D01*
X123991666Y-130292914D02*
X124086904Y-130340533D01*
X123039285Y-131054819D02*
X122848809Y-131054819D01*
X122848809Y-131054819D02*
X122753571Y-131007200D01*
X122753571Y-131007200D02*
X122705952Y-130959580D01*
X122705952Y-130959580D02*
X122610714Y-130816723D01*
X122610714Y-130816723D02*
X122563095Y-130626247D01*
X122563095Y-130626247D02*
X122563095Y-130245295D01*
X122563095Y-130245295D02*
X122610714Y-130150057D01*
X122610714Y-130150057D02*
X122658333Y-130102438D01*
X122658333Y-130102438D02*
X122753571Y-130054819D01*
X122753571Y-130054819D02*
X122944047Y-130054819D01*
X122944047Y-130054819D02*
X123039285Y-130102438D01*
X123039285Y-130102438D02*
X123086904Y-130150057D01*
X123086904Y-130150057D02*
X123134523Y-130245295D01*
X123134523Y-130245295D02*
X123134523Y-130483390D01*
X123134523Y-130483390D02*
X123086904Y-130578628D01*
X123086904Y-130578628D02*
X123039285Y-130626247D01*
X123039285Y-130626247D02*
X122944047Y-130673866D01*
X122944047Y-130673866D02*
X122753571Y-130673866D01*
X122753571Y-130673866D02*
X122658333Y-130626247D01*
X122658333Y-130626247D02*
X122610714Y-130578628D01*
X122610714Y-130578628D02*
X122563095Y-130483390D01*
X126796428Y-132837295D02*
X127253571Y-132837295D01*
X127024999Y-132837295D02*
X127024999Y-132037295D01*
X127024999Y-132037295D02*
X127101190Y-132151580D01*
X127101190Y-132151580D02*
X127177380Y-132227771D01*
X127177380Y-132227771D02*
X127253571Y-132265866D01*
X184094344Y-71523569D02*
X184094344Y-70523569D01*
X184094344Y-70523569D02*
X183856249Y-70523569D01*
X183856249Y-70523569D02*
X183713392Y-70571188D01*
X183713392Y-70571188D02*
X183618154Y-70666426D01*
X183618154Y-70666426D02*
X183570535Y-70761664D01*
X183570535Y-70761664D02*
X183522916Y-70952140D01*
X183522916Y-70952140D02*
X183522916Y-71094997D01*
X183522916Y-71094997D02*
X183570535Y-71285473D01*
X183570535Y-71285473D02*
X183618154Y-71380711D01*
X183618154Y-71380711D02*
X183713392Y-71475950D01*
X183713392Y-71475950D02*
X183856249Y-71523569D01*
X183856249Y-71523569D02*
X184094344Y-71523569D01*
X183141963Y-70618807D02*
X183094344Y-70571188D01*
X183094344Y-70571188D02*
X182999106Y-70523569D01*
X182999106Y-70523569D02*
X182761011Y-70523569D01*
X182761011Y-70523569D02*
X182665773Y-70571188D01*
X182665773Y-70571188D02*
X182618154Y-70618807D01*
X182618154Y-70618807D02*
X182570535Y-70714045D01*
X182570535Y-70714045D02*
X182570535Y-70809283D01*
X182570535Y-70809283D02*
X182618154Y-70952140D01*
X182618154Y-70952140D02*
X183189582Y-71523569D01*
X183189582Y-71523569D02*
X182570535Y-71523569D01*
X186327678Y-73306045D02*
X186784821Y-73306045D01*
X186556249Y-73306045D02*
X186556249Y-72506045D01*
X186556249Y-72506045D02*
X186632440Y-72620330D01*
X186632440Y-72620330D02*
X186708630Y-72696521D01*
X186708630Y-72696521D02*
X186784821Y-72734616D01*
X163139285Y-131054819D02*
X163139285Y-130054819D01*
X163139285Y-130054819D02*
X162901190Y-130054819D01*
X162901190Y-130054819D02*
X162758333Y-130102438D01*
X162758333Y-130102438D02*
X162663095Y-130197676D01*
X162663095Y-130197676D02*
X162615476Y-130292914D01*
X162615476Y-130292914D02*
X162567857Y-130483390D01*
X162567857Y-130483390D02*
X162567857Y-130626247D01*
X162567857Y-130626247D02*
X162615476Y-130816723D01*
X162615476Y-130816723D02*
X162663095Y-130911961D01*
X162663095Y-130911961D02*
X162758333Y-131007200D01*
X162758333Y-131007200D02*
X162901190Y-131054819D01*
X162901190Y-131054819D02*
X163139285Y-131054819D01*
X162186904Y-130150057D02*
X162139285Y-130102438D01*
X162139285Y-130102438D02*
X162044047Y-130054819D01*
X162044047Y-130054819D02*
X161805952Y-130054819D01*
X161805952Y-130054819D02*
X161710714Y-130102438D01*
X161710714Y-130102438D02*
X161663095Y-130150057D01*
X161663095Y-130150057D02*
X161615476Y-130245295D01*
X161615476Y-130245295D02*
X161615476Y-130340533D01*
X161615476Y-130340533D02*
X161663095Y-130483390D01*
X161663095Y-130483390D02*
X162234523Y-131054819D01*
X162234523Y-131054819D02*
X161615476Y-131054819D01*
X160996428Y-130054819D02*
X160901190Y-130054819D01*
X160901190Y-130054819D02*
X160805952Y-130102438D01*
X160805952Y-130102438D02*
X160758333Y-130150057D01*
X160758333Y-130150057D02*
X160710714Y-130245295D01*
X160710714Y-130245295D02*
X160663095Y-130435771D01*
X160663095Y-130435771D02*
X160663095Y-130673866D01*
X160663095Y-130673866D02*
X160710714Y-130864342D01*
X160710714Y-130864342D02*
X160758333Y-130959580D01*
X160758333Y-130959580D02*
X160805952Y-131007200D01*
X160805952Y-131007200D02*
X160901190Y-131054819D01*
X160901190Y-131054819D02*
X160996428Y-131054819D01*
X160996428Y-131054819D02*
X161091666Y-131007200D01*
X161091666Y-131007200D02*
X161139285Y-130959580D01*
X161139285Y-130959580D02*
X161186904Y-130864342D01*
X161186904Y-130864342D02*
X161234523Y-130673866D01*
X161234523Y-130673866D02*
X161234523Y-130435771D01*
X161234523Y-130435771D02*
X161186904Y-130245295D01*
X161186904Y-130245295D02*
X161139285Y-130150057D01*
X161139285Y-130150057D02*
X161091666Y-130102438D01*
X161091666Y-130102438D02*
X160996428Y-130054819D01*
X164896428Y-132837295D02*
X165353571Y-132837295D01*
X165124999Y-132837295D02*
X165124999Y-132037295D01*
X165124999Y-132037295D02*
X165201190Y-132151580D01*
X165201190Y-132151580D02*
X165277380Y-132227771D01*
X165277380Y-132227771D02*
X165353571Y-132265866D01*
X184094344Y-109623569D02*
X184094344Y-108623569D01*
X184094344Y-108623569D02*
X183856249Y-108623569D01*
X183856249Y-108623569D02*
X183713392Y-108671188D01*
X183713392Y-108671188D02*
X183618154Y-108766426D01*
X183618154Y-108766426D02*
X183570535Y-108861664D01*
X183570535Y-108861664D02*
X183522916Y-109052140D01*
X183522916Y-109052140D02*
X183522916Y-109194997D01*
X183522916Y-109194997D02*
X183570535Y-109385473D01*
X183570535Y-109385473D02*
X183618154Y-109480711D01*
X183618154Y-109480711D02*
X183713392Y-109575950D01*
X183713392Y-109575950D02*
X183856249Y-109623569D01*
X183856249Y-109623569D02*
X184094344Y-109623569D01*
X182570535Y-109623569D02*
X183141963Y-109623569D01*
X182856249Y-109623569D02*
X182856249Y-108623569D01*
X182856249Y-108623569D02*
X182951487Y-108766426D01*
X182951487Y-108766426D02*
X183046725Y-108861664D01*
X183046725Y-108861664D02*
X183141963Y-108909283D01*
X186327678Y-111406045D02*
X186784821Y-111406045D01*
X186556249Y-111406045D02*
X186556249Y-110606045D01*
X186556249Y-110606045D02*
X186632440Y-110720330D01*
X186632440Y-110720330D02*
X186708630Y-110796521D01*
X186708630Y-110796521D02*
X186784821Y-110834616D01*
D11*
%TO.C,D22*%
X99593750Y-113318750D02*
X99593750Y-109918750D01*
X99593750Y-113318750D02*
X100193750Y-113918750D01*
X105193750Y-109918750D02*
X99593750Y-109918750D01*
X105193750Y-109918750D02*
X105193750Y-113918750D01*
X105193750Y-113918750D02*
X100193750Y-113918750D01*
%TO.C,D21*%
X99593750Y-75218750D02*
X99593750Y-71818750D01*
X99593750Y-75218750D02*
X100193750Y-75818750D01*
X105193750Y-71818750D02*
X99593750Y-71818750D01*
X105193750Y-71818750D02*
X105193750Y-75818750D01*
X105193750Y-75818750D02*
X100193750Y-75818750D01*
%TO.C,D19*%
X121025000Y-134750000D02*
X121025000Y-131350000D01*
X121025000Y-134750000D02*
X121625000Y-135350000D01*
X126625000Y-131350000D02*
X121025000Y-131350000D01*
X126625000Y-131350000D02*
X126625000Y-135350000D01*
X126625000Y-135350000D02*
X121625000Y-135350000D01*
%TO.C,D2*%
X180556250Y-75218750D02*
X180556250Y-71818750D01*
X180556250Y-75218750D02*
X181156250Y-75818750D01*
X186156250Y-71818750D02*
X180556250Y-71818750D01*
X186156250Y-71818750D02*
X186156250Y-75818750D01*
X186156250Y-75818750D02*
X181156250Y-75818750D01*
%TO.C,D20*%
X159125000Y-134750000D02*
X159125000Y-131350000D01*
X159125000Y-134750000D02*
X159725000Y-135350000D01*
X164725000Y-131350000D02*
X159125000Y-131350000D01*
X164725000Y-131350000D02*
X164725000Y-135350000D01*
X164725000Y-135350000D02*
X159725000Y-135350000D01*
%TO.C,D1*%
X180556250Y-113318750D02*
X180556250Y-109918750D01*
X180556250Y-113318750D02*
X181156250Y-113918750D01*
X186156250Y-109918750D02*
X180556250Y-109918750D01*
X186156250Y-109918750D02*
X186156250Y-113918750D01*
X186156250Y-113918750D02*
X181156250Y-113918750D01*
%TD*%
M02*
