%TF.GenerationSoftware,KiCad,Pcbnew,9.0.7*%
%TF.CreationDate,2026-04-10T15:56:46-04:00*%
%TF.ProjectId,Macro Pad,4d616372-6f20-4506-9164-2e6b69636164,rev?*%
%TF.SameCoordinates,Original*%
%TF.FileFunction,Soldermask,Bot*%
%TF.FilePolarity,Negative*%
%FSLAX46Y46*%
G04 Gerber Fmt 4.6, Leading zero omitted, Abs format (unit mm)*
G04 Created by KiCad (PCBNEW 9.0.7) date 2026-04-10 15:56:46*
%MOMM*%
%LPD*%
G01*
G04 APERTURE LIST*
G04 Aperture macros list*
%AMRoundRect*
0 Rectangle with rounded corners*
0 $1 Rounding radius*
0 $2 $3 $4 $5 $6 $7 $8 $9 X,Y pos of 4 corners*
0 Add a 4 corners polygon primitive as box body*
4,1,4,$2,$3,$4,$5,$6,$7,$8,$9,$2,$3,0*
0 Add four circle primitives for the rounded corners*
1,1,$1+$1,$2,$3*
1,1,$1+$1,$4,$5*
1,1,$1+$1,$6,$7*
1,1,$1+$1,$8,$9*
0 Add four rect primitives between the rounded corners*
20,1,$1+$1,$2,$3,$4,$5,0*
20,1,$1+$1,$4,$5,$6,$7,0*
20,1,$1+$1,$6,$7,$8,$9,0*
20,1,$1+$1,$8,$9,$2,$3,0*%
G04 Aperture macros list end*
%ADD10C,1.700000*%
%ADD11C,4.000000*%
%ADD12C,2.200000*%
%ADD13RoundRect,0.250000X0.550000X-0.550000X0.550000X0.550000X-0.550000X0.550000X-0.550000X-0.550000X0*%
%ADD14C,1.600000*%
%ADD15R,1.600000X0.850000*%
%ADD16C,1.524000*%
G04 APERTURE END LIST*
D10*
%TO.C,SW6*%
X128263750Y-83343750D03*
D11*
X133343750Y-83343750D03*
D10*
X138423750Y-83343750D03*
D12*
X135883750Y-78263750D03*
X129533750Y-80803750D03*
%TD*%
D13*
%TO.C,D9*%
X161918750Y-88582500D03*
D14*
X161918750Y-80962500D03*
%TD*%
D13*
%TO.C,D18*%
X180968750Y-126682500D03*
D14*
X180968750Y-119062500D03*
%TD*%
D13*
%TO.C,D17*%
X161918750Y-126682500D03*
D14*
X161918750Y-119062500D03*
%TD*%
D13*
%TO.C,D16*%
X142868750Y-126682500D03*
D14*
X142868750Y-119062500D03*
%TD*%
D10*
%TO.C,SW2*%
X128263750Y-64293750D03*
D11*
X133343750Y-64293750D03*
D10*
X138423750Y-64293750D03*
D12*
X135883750Y-59213750D03*
X129533750Y-61753750D03*
%TD*%
D13*
%TO.C,D15*%
X123818750Y-126682500D03*
D14*
X123818750Y-119062500D03*
%TD*%
D13*
%TO.C,D4*%
X142868750Y-69532500D03*
D14*
X142868750Y-61912500D03*
%TD*%
D10*
%TO.C,SW10*%
X128263750Y-102393750D03*
D11*
X133343750Y-102393750D03*
D10*
X138423750Y-102393750D03*
D12*
X135883750Y-97313750D03*
X129533750Y-99853750D03*
%TD*%
D10*
%TO.C,SW16*%
X166363750Y-121443750D03*
D11*
X171443750Y-121443750D03*
D10*
X176523750Y-121443750D03*
D12*
X173983750Y-116363750D03*
X167633750Y-118903750D03*
%TD*%
D10*
%TO.C,SW11*%
X147313750Y-102393750D03*
D11*
X152393750Y-102393750D03*
D10*
X157473750Y-102393750D03*
D12*
X154933750Y-97313750D03*
X148583750Y-99853750D03*
%TD*%
D13*
%TO.C,D12*%
X142868750Y-107632500D03*
D14*
X142868750Y-100012500D03*
%TD*%
D13*
%TO.C,D8*%
X142868750Y-88582500D03*
D14*
X142868750Y-80962500D03*
%TD*%
D13*
%TO.C,D3*%
X123818750Y-69532500D03*
D14*
X123818750Y-61912500D03*
%TD*%
D13*
%TO.C,D5*%
X161918750Y-69532500D03*
D14*
X161918750Y-61912500D03*
%TD*%
D13*
%TO.C,D7*%
X123818750Y-88582500D03*
D14*
X123818750Y-80962500D03*
%TD*%
D13*
%TO.C,D6*%
X180968750Y-69532500D03*
D14*
X180968750Y-61912500D03*
%TD*%
D13*
%TO.C,D14*%
X180968750Y-107632500D03*
D14*
X180968750Y-100012500D03*
%TD*%
D10*
%TO.C,SW8*%
X166363750Y-83343750D03*
D11*
X171443750Y-83343750D03*
D10*
X176523750Y-83343750D03*
D12*
X173983750Y-78263750D03*
X167633750Y-80803750D03*
%TD*%
D10*
%TO.C,SW9*%
X109213750Y-102393750D03*
D11*
X114293750Y-102393750D03*
D10*
X119373750Y-102393750D03*
D12*
X116833750Y-97313750D03*
X110483750Y-99853750D03*
%TD*%
D10*
%TO.C,SW3*%
X147313750Y-64293750D03*
D11*
X152393750Y-64293750D03*
D10*
X157473750Y-64293750D03*
D12*
X154933750Y-59213750D03*
X148583750Y-61753750D03*
%TD*%
D13*
%TO.C,D10*%
X180968750Y-88582500D03*
D14*
X180968750Y-80962500D03*
%TD*%
D10*
%TO.C,SW15*%
X147313750Y-121443750D03*
D11*
X152393750Y-121443750D03*
D10*
X157473750Y-121443750D03*
D12*
X154933750Y-116363750D03*
X148583750Y-118903750D03*
%TD*%
D10*
%TO.C,SW12*%
X166363750Y-102393750D03*
D11*
X171443750Y-102393750D03*
D10*
X176523750Y-102393750D03*
D12*
X173983750Y-97313750D03*
X167633750Y-99853750D03*
%TD*%
D10*
%TO.C,SW7*%
X147313750Y-83343750D03*
D11*
X152393750Y-83343750D03*
D10*
X157473750Y-83343750D03*
D12*
X154933750Y-78263750D03*
X148583750Y-80803750D03*
%TD*%
D10*
%TO.C,SW14*%
X128263750Y-121443750D03*
D11*
X133343750Y-121443750D03*
D10*
X138423750Y-121443750D03*
D12*
X135883750Y-116363750D03*
X129533750Y-118903750D03*
%TD*%
D10*
%TO.C,SW1*%
X109213750Y-64293750D03*
D11*
X114293750Y-64293750D03*
D10*
X119373750Y-64293750D03*
D12*
X116833750Y-59213750D03*
X110483750Y-61753750D03*
%TD*%
D10*
%TO.C,SW5*%
X109213750Y-83343750D03*
D11*
X114293750Y-83343750D03*
D10*
X119373750Y-83343750D03*
D12*
X116833750Y-78263750D03*
X110483750Y-80803750D03*
%TD*%
D13*
%TO.C,D11*%
X123818750Y-107632500D03*
D14*
X123818750Y-100012500D03*
%TD*%
D10*
%TO.C,SW4*%
X166363750Y-64293750D03*
D11*
X171443750Y-64293750D03*
D10*
X176523750Y-64293750D03*
D12*
X173983750Y-59213750D03*
X167633750Y-61753750D03*
%TD*%
D13*
%TO.C,D13*%
X161918750Y-107632500D03*
D14*
X161918750Y-100012500D03*
%TD*%
D10*
%TO.C,SW13*%
X109213750Y-121443750D03*
D11*
X114293750Y-121443750D03*
D10*
X119373750Y-121443750D03*
D12*
X116833750Y-116363750D03*
X110483750Y-118903750D03*
%TD*%
D15*
%TO.C,D22*%
X104143750Y-111043750D03*
X104143750Y-112793750D03*
X100643750Y-112793750D03*
X100643750Y-111043750D03*
%TD*%
%TO.C,D21*%
X104143750Y-72943750D03*
X104143750Y-74693750D03*
X100643750Y-74693750D03*
X100643750Y-72943750D03*
%TD*%
%TO.C,D19*%
X125575000Y-132475000D03*
X125575000Y-134225000D03*
X122075000Y-134225000D03*
X122075000Y-132475000D03*
%TD*%
%TO.C,D2*%
X185106250Y-72943750D03*
X185106250Y-74693750D03*
X181606250Y-74693750D03*
X181606250Y-72943750D03*
%TD*%
%TO.C,D20*%
X163675000Y-132475000D03*
X163675000Y-134225000D03*
X160175000Y-134225000D03*
X160175000Y-132475000D03*
%TD*%
%TO.C,D1*%
X185106250Y-111043750D03*
X185106250Y-112793750D03*
X181606250Y-112793750D03*
X181606250Y-111043750D03*
%TD*%
D16*
%TO.C,U2*%
X96106091Y-53340000D03*
X98646091Y-53340000D03*
X101186091Y-53340000D03*
X103726091Y-53340000D03*
X106266091Y-53340000D03*
X108806091Y-53340000D03*
X111346091Y-53340000D03*
X111346091Y-38100000D03*
X108806091Y-38100000D03*
X106266091Y-38100000D03*
X103726091Y-38100000D03*
X101186091Y-38100000D03*
X98646091Y-38100000D03*
X96106091Y-38100000D03*
%TD*%
M02*
